<?xml version="1.0" encoding="UTF-8"?>
<svg width="31px" height="15px" viewBox="0 0 31 15" version="1.1" xmlns="http://www.w3.org/2000/svg" xmlns:xlink="http://www.w3.org/1999/xlink">
    <title>6FC859E2-BA56-449A-A425-DAFE0927EB6F</title>
    <g id="V2" stroke="none" stroke-width="1" fill="none" fill-rule="evenodd">
        <g id="Home-V2" transform="translate(-734.000000, -2798.000000)" fill="#FFFFFF" fill-rule="nonzero">
            <path d="M749.49129,2790 C749.116039,2790.00764 748.815305,2790.30028 748.820628,2790.65599 L748.820628,2818.59074 L743.159916,2813.44175 C743.02951,2813.31813 742.851199,2813.25002 742.667565,2813.25254 C742.390784,2813.26011 742.143278,2813.42409 742.044807,2813.6688 C741.946337,2813.91351 742.012871,2814.19101 742.217796,2814.37013 L749.501936,2821 L756.786075,2814.37013 C756.964387,2814.2112 757.038905,2813.97406 756.980355,2813.74953 C756.921805,2813.525 756.740832,2813.34588 756.506633,2813.28281 C756.269772,2813.21722 756.016943,2813.27777 755.843955,2813.44175 L750.183243,2818.59074 L750.183243,2790.65599 C750.185905,2790.48192 750.114048,2790.31289 749.983641,2790.18928 C749.853235,2790.06566 749.674924,2789.99755 749.49129,2790 Z" id="arrow-right" transform="translate(749.500000, 2805.500000) rotate(-90.000000) translate(-749.500000, -2805.500000) "></path>
        </g>
    </g>
</svg>