<?xml version="1.0" encoding="UTF-8"?>
<svg width="31px" height="15px" viewBox="0 0 31 15" version="1.1" xmlns="http://www.w3.org/2000/svg" xmlns:xlink="http://www.w3.org/1999/xlink">
    <title>B1FFA42F-EBC3-4320-AA08-EA772D38CC59</title>
    <g id="V2" stroke="none" stroke-width="1" fill="none" fill-rule="evenodd" opacity="1">
        <g id="Home-V2" transform="translate(-657.000000, -2799.000000)" fill="#FFFFFF" fill-rule="nonzero">
            <path d="M672.561974,2790.90941 C672.194782,2790.91702 671.900508,2791.20833 671.905716,2791.56242 L671.905716,2819.37012 L666.366584,2814.24455 C666.238978,2814.12149 666.064497,2814.05369 665.884807,2814.0562 C665.61397,2814.06373 665.37178,2814.22697 665.275425,2814.47056 C665.179069,2814.71416 665.244174,2814.9904 665.444698,2815.16871 L672.572391,2821.76842 L679.700085,2815.16871 C679.874566,2815.01049 679.947484,2814.77443 679.890192,2814.55092 C679.832899,2814.32742 679.655814,2814.14912 679.426644,2814.08633 C679.19487,2814.02104 678.947471,2814.08131 678.778199,2814.24455 L673.239066,2819.37012 L673.239066,2791.56242 C673.24167,2791.38914 673.171357,2791.22088 673.043751,2791.09783 C672.916146,2790.97478 672.741664,2790.90697 672.561974,2790.90941 Z" id="arrow-left" transform="translate(672.570497, 2806.338918) rotate(-270.000000) translate(-672.570497, -2806.338918) "></path>
        </g>
    </g>
</svg>