<svg width="31" height="29" viewBox="0 0 31 29" fill="none" xmlns="http://www.w3.org/2000/svg">
<path d="M15.5 0C12.6422 0 10.3559 1.61795 9.97812 3.78261H1.86C0.835547 3.78261 0 4.63222 0 5.67391V16.3913C0 16.7385 0.278516 17.0217 0.62 17.0217H12.4C12.4 15.98 13.2355 15.1304 14.26 15.1304H16.74C17.7645 15.1304 18.6 15.98 18.6 17.0217H30.38C30.7215 17.0217 31 16.7385 31 16.3913V5.67391C31 4.63222 30.1645 3.78261 29.14 3.78261H21.0219C20.6441 1.61795 18.3578 0 15.5 0ZM15.5 1.26087C17.6385 1.26087 19.375 2.32473 19.7625 3.78261H11.2375C11.625 2.32473 13.3615 1.26087 15.5 1.26087ZM14.26 16.3913C13.9185 16.3913 13.64 16.6745 13.64 17.0217V18.2826C13.64 18.6298 13.9185 18.913 14.26 18.913H16.74C17.0815 18.913 17.36 18.6298 17.36 18.2826V17.0217C17.36 16.6745 17.0815 16.3913 16.74 16.3913H14.26ZM0 18.1644V27.1087C0 28.1504 0.835547 29 1.86 29H29.14C30.1645 29 31 28.1504 31 27.1087V18.1644C30.8062 18.2358 30.598 18.2826 30.38 18.2826H18.6C18.6 19.3243 17.7645 20.1739 16.74 20.1739H14.26C13.2355 20.1739 12.4 19.3243 12.4 18.2826H0.62C0.402032 18.2826 0.19375 18.2358 0 18.1644Z" fill="#009FE3"/>
</svg>
