<svg width="14" height="14" viewBox="0 0 14 14" fill="none" xmlns="http://www.w3.org/2000/svg">
<path d="M2.91667 0C2.59766 0 2.33333 0.264323 2.33333 0.583333V1.16667H0.583333C0.244955 1.16667 0 1.41162 0 1.75V3.79167H13.4167V1.75C13.4167 1.41162 13.1717 1.16667 12.8333 1.16667H11.0833V0.583333C11.0833 0.264323 10.819 0 10.5 0H9.91667C9.59766 0 9.33333 0.264323 9.33333 0.583333V1.16667H4.08333V0.583333C4.08333 0.264323 3.81901 0 3.5 0H2.91667ZM2.91667 0.583333H3.5V2.33333H2.91667V0.583333ZM9.91667 0.583333H10.5V2.33333H9.91667V0.583333ZM0 4.375V13.4167C0 13.755 0.244955 14 0.583333 14H12.8333C13.1717 14 13.4167 13.755 13.4167 13.4167V4.375H0ZM2.91667 6.125H4.375V7.58333H2.91667V6.125ZM4.95833 6.125H6.41667V7.58333H4.95833V6.125ZM7 6.125H8.45833V7.58333H7V6.125ZM9.04167 6.125H10.5V7.58333H9.04167V6.125ZM2.91667 8.16667H4.375V9.625H2.91667V8.16667ZM4.95833 8.16667H6.41667V9.625H4.95833V8.16667ZM7 8.16667H8.45833V9.625H7V8.16667ZM9.04167 8.16667H10.5V9.625H9.04167V8.16667ZM2.91667 10.2083H4.375V11.6667H2.91667V10.2083ZM4.95833 10.2083H6.41667V11.6667H4.95833V10.2083ZM7 10.2083H8.45833V11.6667H7V10.2083ZM9.04167 10.2083H10.5V11.6667H9.04167V10.2083Z" fill="#009FE3"/>
</svg>
