<?xml version="1.0" encoding="UTF-8"?>
<svg width="20px" height="22px" viewBox="0 0 20 22" version="1.1" xmlns="http://www.w3.org/2000/svg" xmlns:xlink="http://www.w3.org/1999/xlink">
    <title>AF3A7181-8535-4D52-B0C8-1B6D8F117651</title>
    <g id="V2" stroke="none" stroke-width="1" fill="none" fill-rule="evenodd">
        <g id="Project" transform="translate(-1233.000000, -1484.000000)" fill="#EF6F23" fill-rule="nonzero">
            <path d="M1247.90039,1499.75854 C1247.05078,1499.4008 1246,1498.93914 1246,1498.5814 L1246,1496.27907 C1247.25,1495.30778 1248,1493.77289 1248,1492.18605 L1248,1489.11628 C1248,1486.30233 1245.75,1484 1243,1484 C1240.25,1484 1238,1486.30233 1238,1489.11628 L1238,1492.18605 C1238,1493.77289 1238.75,1495.35774 1240,1496.27907 L1240,1498.5814 C1240,1498.88917 1238.94922,1499.34884 1238.09961,1499.75854 C1236.05078,1500.62791 1233,1501.95894 1233,1505.48837 L1233,1506 L1253,1506 L1253,1505.48837 C1253,1501.95894 1249.94922,1500.62791 1247.90039,1499.75854 Z" id="client"></path>
        </g>
    </g>
</svg>