<?xml version="1.0" encoding="UTF-8"?>
<svg width="21px" height="22px" viewBox="0 0 21 22" version="1.1" xmlns="http://www.w3.org/2000/svg" xmlns:xlink="http://www.w3.org/1999/xlink">
    <title>F5F816B1-7060-435E-AFB4-3A9973C662C2</title>
    <g id="V2" stroke="none" stroke-width="1" fill="none" fill-rule="evenodd">
        <g id="Project" transform="translate(-1233.000000, -1565.000000)" fill="#EF6F23" fill-rule="nonzero">
            <path d="M1237.56522,1565 C1237.0659,1565 1236.65217,1565.41536 1236.65217,1565.91667 L1236.65217,1566.83333 L1233.91304,1566.83333 C1233.38341,1566.83333 1233,1567.21826 1233,1567.75 L1233,1570.95833 L1254,1570.95833 L1254,1567.75 C1254,1567.21826 1253.61659,1566.83333 1253.08696,1566.83333 L1250.34783,1566.83333 L1250.34783,1565.91667 C1250.34783,1565.41536 1249.9341,1565 1249.43478,1565 L1248.52174,1565 C1248.02242,1565 1247.6087,1565.41536 1247.6087,1565.91667 L1247.6087,1566.83333 L1239.3913,1566.83333 L1239.3913,1565.91667 C1239.3913,1565.41536 1238.97758,1565 1238.47826,1565 L1237.56522,1565 Z M1237.56522,1565.91667 L1238.47826,1565.91667 L1238.47826,1568.66667 L1237.56522,1568.66667 L1237.56522,1565.91667 Z M1248.52174,1565.91667 L1249.43478,1565.91667 L1249.43478,1568.66667 L1248.52174,1568.66667 L1248.52174,1565.91667 Z M1233,1571.875 L1233,1586.08333 C1233,1586.61507 1233.38341,1587 1233.91304,1587 L1253.08696,1587 C1253.61659,1587 1254,1586.61507 1254,1586.08333 L1254,1571.875 L1233,1571.875 Z M1237.56522,1574.625 L1239.84783,1574.625 L1239.84783,1576.91667 L1237.56522,1576.91667 L1237.56522,1574.625 Z M1240.76087,1574.625 L1243.04348,1574.625 L1243.04348,1576.91667 L1240.76087,1576.91667 L1240.76087,1574.625 Z M1243.95652,1574.625 L1246.23913,1574.625 L1246.23913,1576.91667 L1243.95652,1576.91667 L1243.95652,1574.625 Z M1247.15217,1574.625 L1249.43478,1574.625 L1249.43478,1576.91667 L1247.15217,1576.91667 L1247.15217,1574.625 Z M1237.56522,1577.83333 L1239.84783,1577.83333 L1239.84783,1580.125 L1237.56522,1580.125 L1237.56522,1577.83333 Z M1240.76087,1577.83333 L1243.04348,1577.83333 L1243.04348,1580.125 L1240.76087,1580.125 L1240.76087,1577.83333 Z M1243.95652,1577.83333 L1246.23913,1577.83333 L1246.23913,1580.125 L1243.95652,1580.125 L1243.95652,1577.83333 Z M1247.15217,1577.83333 L1249.43478,1577.83333 L1249.43478,1580.125 L1247.15217,1580.125 L1247.15217,1577.83333 Z M1237.56522,1581.04167 L1239.84783,1581.04167 L1239.84783,1583.33333 L1237.56522,1583.33333 L1237.56522,1581.04167 Z M1240.76087,1581.04167 L1243.04348,1581.04167 L1243.04348,1583.33333 L1240.76087,1583.33333 L1240.76087,1581.04167 Z M1243.95652,1581.04167 L1246.23913,1581.04167 L1246.23913,1583.33333 L1243.95652,1583.33333 L1243.95652,1581.04167 Z M1247.15217,1581.04167 L1249.43478,1581.04167 L1249.43478,1583.33333 L1247.15217,1583.33333 L1247.15217,1581.04167 Z" id="completion"></path>
        </g>
    </g>
</svg>