<svg width="30" height="29" viewBox="0 0 30 29" fill="none" xmlns="http://www.w3.org/2000/svg">
<path d="M21.3368 0C21.0799 0 20.8006 0.135937 20.6414 0.300196C20.485 0.464453 20.4124 0.634375 20.3621 0.787305C20.256 1.09883 20.2336 1.39336 20.2197 1.70488C20.189 2.3251 20.2225 3.01328 20.1945 3.34746C20.1219 4.22256 19.9376 5.37803 19.6667 5.71787C19.5354 5.60459 19.379 5.47148 19.3399 5.43184L19.312 5.40352L19.2785 5.38086C18.6389 4.85977 18.0356 4.40664 17.5831 3.96201C17.6195 3.8459 17.6558 3.72979 17.6558 3.625C17.6558 3.58818 17.6334 3.54287 17.6278 3.50322C17.6781 3.4834 17.6669 3.50606 17.7256 3.47773L17.7619 3.45508L17.801 3.43242C18.2283 3.14072 18.5411 2.57148 18.259 1.99375L18.206 1.8918L18.125 1.80684C17.8848 1.56328 17.6418 1.45 17.2592 1.45C16.5889 1.3792 15.8795 1.41318 15.5248 1.32822C15.4103 1.24893 15.3265 1.09883 15.212 1.06201C14.9327 0.974219 14.6785 0.974219 14.4523 1.00254C14.2288 1.02803 14.0305 1.08184 13.8546 1.14981C13.8462 1.15264 13.8378 1.1583 13.8295 1.16113C13.7485 1.11016 13.6619 1.05352 13.5502 0.996875C13.4859 0.962891 13.4161 0.926074 13.3044 0.894922C13.2178 0.872266 13.0391 0.883594 12.8463 0.934571C12.7207 0.962891 12.5894 0.974219 12.4777 1.05918C12.3101 1.19512 12.2207 1.36787 12.176 1.50098C12.0895 1.76719 12.1146 1.92295 12.1146 2.03057V2.0334C11.6594 2.31377 11.327 2.71025 11.1818 3.15488C11.1706 3.19453 11.1818 3.23701 11.1706 3.27949C10.8969 3.10391 10.6008 2.88018 10.1093 2.83203L10.0758 2.82637H10.0395C9.38591 2.82637 8.83012 3.1209 8.41956 3.52305C7.96431 3.91953 7.84701 4.24238 7.70457 4.48877C7.53979 4.39814 7.36662 4.29336 7.21581 4.30469C7.00634 4.31885 6.85552 4.39248 6.73263 4.47178C6.48685 4.63037 6.31928 4.82012 6.21594 5.13447L6.17684 5.24775V5.3667C6.17684 5.26758 6.18242 5.32988 6.10981 5.47432L6.08746 5.52246L6.0735 5.57061C6.00926 5.76602 5.90872 6.03506 5.797 6.27295C5.68808 6.51084 5.54564 6.72041 5.52888 6.7374C5.26914 7.00078 4.85578 7.12822 4.3363 7.27832L4.32234 7.28398L4.30837 7.28682C3.20237 7.66065 2.36449 8.04863 1.4149 8.56406C1.09092 8.73115 0.792076 8.93223 0.526748 9.20127L0.504405 9.22109L0.487647 9.24375C-0.185448 10.0396 -0.0458023 11.0676 0.219526 11.7812C0.286556 11.9908 0.345207 12.1749 0.409445 12.427C0.415031 12.4524 0.415031 12.4383 0.420617 12.4411C0.0715009 12.8263 -0.00390826 13.3502 0.063122 13.6815C0.130152 14.0271 0.306107 14.2706 0.306107 14.2706L0.258627 14.1941C1.02947 15.6356 0.99596 16.7515 0.727839 18.4818C0.638465 18.53 0.532334 18.5583 0.465303 18.6206C0.19439 18.8557 0.0044707 19.2408 0.0519503 19.6939C0.0742937 20.1046 0.278177 20.4076 0.498819 20.603C0.736217 20.8098 1.00713 20.9485 1.31994 21.0108L1.38697 21.025H1.81708C2.46504 21.025 3.0348 20.7984 3.54869 20.5804C4.06539 20.3595 4.5346 20.1414 4.8502 20.0621L4.9284 20.0395L4.99543 20.0055C5.39203 19.8044 5.68528 19.6911 5.95061 19.6373C6.22711 19.592 6.60416 19.6458 7.10968 19.6458C7.69619 19.6458 8.4419 19.5042 8.86643 18.7877L8.8776 18.7622L8.89156 18.7396C8.91949 18.6801 8.95301 18.6319 8.97814 18.5923C9.02283 18.5838 9.14013 18.5271 9.25744 18.4762C9.84954 18.3742 10.4835 18.5838 11.4555 18.4054L11.489 18.3969L11.5225 18.3855C11.9638 18.2581 12.3967 18.1958 12.8296 18.1958C13.5111 18.1958 13.9607 18.176 14.1171 18.2185C14.2735 18.2609 14.3182 18.2524 14.5277 18.7622L14.5361 18.7877L14.5472 18.8132C14.5612 18.8415 14.6031 18.9463 14.6785 19.0851C14.7539 19.221 14.8684 19.4277 15.1533 19.5722L15.2231 19.6062L15.3013 19.626C15.5918 19.6996 15.9186 19.6543 16.1588 19.5438C16.3962 19.4334 16.5581 19.2805 16.695 19.1445C16.6587 19.1785 16.8737 19.1077 16.9855 19.0652C16.9464 19.1644 16.9492 19.3739 16.8989 19.4249C16.7955 19.5297 16.7397 19.6345 16.7118 19.6883C16.4716 19.9205 16.3571 20.1896 16.29 20.4161C16.2118 20.6823 16.1867 20.9089 16.1867 21.0958V21.2516L16.2509 21.3903C16.4129 21.7642 16.8235 22.0304 17.153 22.0785C17.4826 22.1238 17.7479 22.0559 17.9825 21.9766C18.4517 21.8236 18.8819 21.5574 18.9405 21.5291L18.9964 21.5008L19.0466 21.4583C19.0746 21.6084 19.083 21.7613 19.1221 21.9256C19.203 22.2428 19.2757 22.526 19.4097 22.8007L19.4237 22.8262C19.3958 22.9536 19.3483 23.0839 19.4069 23.2736C19.4879 23.5398 19.6471 23.6956 19.8063 23.8315L19.8175 23.8372C20.3481 24.2677 20.8928 24.3441 21.2531 24.4688L21.3648 24.5056H21.4793C21.3843 24.5056 21.605 24.5792 21.9792 24.5792C22.2753 24.5792 22.9344 24.5962 23.5628 24.5849C23.8784 24.582 24.1856 24.5707 24.4621 24.5452C24.7302 24.5169 24.9258 24.5254 25.2553 24.3328C25.6854 24.1034 25.9061 23.7976 26.0597 23.6418L25.9508 23.7324C26.1882 23.571 26.2496 23.4351 26.3222 23.3161C26.3948 23.1972 26.4507 23.0924 26.501 23.0074C26.5261 22.9649 26.5289 22.9621 26.5484 22.9395C26.5875 22.9281 26.6602 22.9451 26.6965 22.9366C26.8585 22.8885 26.9981 22.8205 27.1322 22.744C27.269 22.6647 27.3975 22.5741 27.5232 22.4495C27.6489 22.3249 27.8248 22.1606 27.836 21.767C27.8667 21.413 27.8332 21.1043 27.8108 20.9117C27.7885 20.7163 27.7885 20.637 27.8136 20.5294C27.984 20.1527 28.227 19.8271 28.4728 19.3399V19.3371C28.6934 18.8925 28.9113 18.4507 29.1319 18.0032L29.0984 18.0599C29.5508 17.3207 29.6262 16.607 29.7938 16.1454C30.1122 15.3383 30.0061 14.4604 29.8469 13.6844C29.7687 13.2964 29.6681 12.9367 29.5592 12.6337C29.4587 12.3448 29.3861 12.1409 29.2017 11.9002C29.0174 11.6 28.8191 11.3791 28.699 11.2318C28.5733 11.0732 28.5175 10.9854 28.4728 10.8014C28.4728 10.6626 28.4811 10.5125 28.4337 10.3001C28.3722 10.0282 28.2046 9.63174 27.8053 9.42783L27.7578 9.40518L27.7131 9.39102C27.512 9.32305 27.4422 9.3542 27.3333 9.3627L27.3416 9.425C27.3416 9.41367 27.336 9.41367 27.3333 9.40518C27.3388 9.40518 27.3305 9.37119 27.3305 9.3627C27.3277 9.3627 27.3221 9.3627 27.3221 9.3627C27.2997 9.13896 27.2187 8.96904 27.1545 8.88125C27.0819 8.78213 27.026 8.73115 26.9897 8.69434C26.6099 8.30918 26.3418 7.6125 25.4732 7.12539L25.4145 7.09141L25.3531 7.06875C25.2721 7.04326 25.1185 6.94131 25.0598 6.88184L25.0431 6.86768L25.0291 6.85352C24.7247 6.57881 24.4007 5.39219 24.2582 4.58223C24.2471 4.50293 24.2303 4.45195 24.2164 4.40664C24.194 4.3415 24.1717 4.28203 24.1465 4.21973C24.0963 4.09229 24.0348 3.95918 23.9734 3.82891C23.9119 3.6958 23.8477 3.56836 23.789 3.46074C23.7611 3.4041 23.7332 3.35879 23.7052 3.31064C23.6773 3.2625 23.6913 3.24834 23.5572 3.1124L23.5097 3.06143L23.4483 3.02178C23.2416 2.88301 22.9903 2.84902 22.8283 2.86035C22.8171 2.86318 22.8171 2.86602 22.8087 2.86602C22.683 2.37041 22.5601 1.86914 22.373 1.29141C22.3367 1.18379 22.2781 1.00537 22.2027 0.821289C22.1272 0.634375 22.0826 0.455957 21.8424 0.212403L21.6329 0H21.3368ZM17.3374 4.35566L17.153 4.4916C17.1838 4.47461 17.1893 4.44629 17.2173 4.42647C17.262 4.39531 17.2787 4.41514 17.3374 4.35566ZM7.60682 5.3667L7.57051 5.59609C7.56213 5.62441 7.55654 5.61875 7.54816 5.62725C7.54537 5.62441 7.54258 5.62158 7.53979 5.61875C7.57051 5.54512 7.60682 5.49131 7.60682 5.3667ZM16.8319 19.575C16.7955 19.6005 16.7732 19.6316 16.7425 19.66C16.7509 19.6486 16.7453 19.6543 16.7537 19.643L16.8319 19.575ZM18.9768 21.025C18.9768 21.0533 18.988 21.0731 18.988 21.1015C18.988 21.0986 18.9852 21.0958 18.9852 21.093C18.9796 21.0901 18.9768 21.1439 18.9768 21.025ZM26.3837 22.9395C26.3362 22.9593 26.3501 22.9819 26.2692 22.9819L26.0429 22.9451C26.2133 23.0018 26.2803 22.9508 26.3837 22.9395ZM22.2641 26.1C22.1943 26.1736 22.1943 26.2444 22.1943 26.3181C22.3367 26.6806 22.4792 27.0431 22.6942 27.4056C22.9791 27.9861 23.2668 28.4931 23.8393 28.9292C23.9119 29 23.9817 29 24.0516 29C24.1968 29 24.4091 28.9292 24.4817 28.8556C24.6967 28.5667 24.6967 28.2042 24.8392 27.8417C24.9118 27.7681 24.9118 27.6944 24.9844 27.55C25.0542 27.3319 25.0542 27.1875 25.0542 26.9694V26.4625C25.0542 26.3181 24.9816 26.1 24.8392 26.1C24.6967 26.1 24.6967 26.2444 24.5543 26.3181H24.1968C23.9119 26.4625 23.5516 26.3917 23.2668 26.3181C22.9819 26.2444 22.6942 26.1 22.4093 26.1H22.2641Z" fill="#009FE3"/>
</svg>
