<?xml version="1.0" encoding="UTF-8"?>
<svg width="89px" height="89px" viewBox="0 0 89 89" version="1.1" xmlns="http://www.w3.org/2000/svg" xmlns:xlink="http://www.w3.org/1999/xlink">
    <title>0E2FF20C-0104-4435-9115-03E624143D22</title>
    <g id="V2" stroke="none" stroke-width="1" fill="none" fill-rule="evenodd">
        <g id="Sectors" transform="translate(-357.000000, -2219.000000)">
            <g id="delivering-on-time" transform="translate(357.000000, 2219.000000)">
                <circle id="Oval" stroke="#FFFFFF" fill="#FFFFFF" cx="44.5" cy="44.5" r="44"></circle>
                <g id="icons8-delivery_time" transform="translate(30.000000, 30.000000)" fill="#EF6F23" fill-rule="nonzero">
                    <path d="M14.6808511,0 C6.58055362,0 0,6.58055362 0,14.6808511 C0,22.7811485 6.58055362,29.3617021 14.6808511,29.3617021 C19.3326357,29.3617021 23.479906,27.1901579 26.1702128,23.8090091 L26.1702128,28.7234043 C26.1669573,28.9535974 26.2878991,29.1677115 26.4867274,29.2837581 C26.6855556,29.3998047 26.9314657,29.3998047 27.1302939,29.2837581 C27.3291222,29.1677115 27.450064,28.9535974 27.4468085,28.7234043 L27.4468085,21.7021277 L26.4831281,21.7021277 L26.4195479,21.7021277 L20.4255319,21.7021277 C20.1953388,21.6988722 19.9812247,21.819814 19.8651781,22.0186422 C19.7491314,22.2174705 19.7491314,22.4633806 19.8651781,22.6622088 C19.9812247,22.861037 20.1953388,22.9819789 20.4255319,22.9787234 L25.2002994,22.9787234 C22.7458679,26.0867802 18.9527783,28.0851064 14.6808511,28.0851064 C7.27051021,28.0851064 1.27659574,22.0911919 1.27659574,14.6808511 C1.27659574,7.27051021 7.27051021,1.27659574 14.6808511,1.27659574 C22.0911919,1.27659574 28.0851064,7.27051021 28.0851064,14.6808511 C28.0818509,14.9110442 28.2027927,15.1251583 28.401621,15.2412049 C28.6004492,15.3572515 28.8463593,15.3572515 29.0451875,15.2412049 C29.2440158,15.1251583 29.3649576,14.9110442 29.3617662,14.6808511 C29.3617662,6.58055362 22.7811485,0 14.6808511,0 Z M14.6808511,2.55319149 C7.98319149,2.55319149 2.55319149,7.98319149 2.55319149,14.6808511 C2.55319149,21.3785106 7.98319149,26.8085106 14.6808511,26.8085106 C17.4817021,26.8085106 20.0532849,25.8497872 22.1060502,24.2553191 L20.4255319,24.2553191 C19.3678723,24.2553191 18.5106383,23.3980851 18.5106383,22.3404255 C18.5106383,21.282766 19.3678723,20.4255319 20.4255319,20.4255319 L25.362367,20.4255319 C26.2840691,18.7155319 26.8085106,16.7597872 26.8085106,14.6808511 C26.8085106,7.98319149 21.3785106,2.55319149 14.6808511,2.55319149 Z M14.6808511,4.46808511 C15.0331915,4.46808511 15.3191489,4.75404255 15.3191489,5.10638298 L15.3191489,12.8831451 C15.8604255,13.0759111 16.2864294,13.5012766 16.478557,14.0425532 L21.7021277,14.0425532 C22.0544681,14.0425532 22.3404255,14.3285106 22.3404255,14.6808511 C22.3404255,15.0331915 22.0544681,15.3191489 21.7021277,15.3191489 L16.478557,15.3191489 C16.21494,16.0614894 15.5131915,16.5957447 14.6808511,16.5957447 C13.6231915,16.5957447 12.7659574,15.7385106 12.7659574,14.6808511 C12.7659574,13.8485106 13.3002128,13.1467621 14.0425532,12.8831451 L14.0425532,5.10638298 C14.0425532,4.75404255 14.3285106,4.46808511 14.6808511,4.46808511 Z" id="Shape"></path>
                </g>
            </g>
        </g>
    </g>
</svg>