<svg width="15" height="15" viewBox="0 0 15 15" fill="none" xmlns="http://www.w3.org/2000/svg">
<path d="M7.27164 0.000935079C6.94247 0.0370937 6.6956 0.318882 6.70308 0.649298V8.22019L5.55597 7.07308C5.42131 6.93468 5.23055 6.86486 5.03728 6.88356C4.78916 6.90725 4.57719 7.07433 4.49615 7.30998C4.41386 7.54689 4.47745 7.80872 4.65824 7.98079L7.34147 10.664L10.0247 7.98079C10.1918 7.82119 10.2603 7.58429 10.203 7.35986C10.1456 7.13667 9.97233 6.96087 9.74914 6.90102C9.52595 6.84117 9.2878 6.90725 9.12696 7.07308L7.97986 8.22019V0.649298C7.98235 0.475986 7.91502 0.310154 7.79283 0.187963C7.67064 0.0657714 7.5048 -0.00155847 7.33149 0.000935079C7.31154 -0.000311693 7.29159 -0.000311693 7.27164 0.000935079ZM0 10.5543V12.3697C0 12.841 0.143388 13.2974 0.478791 13.6166C0.814195 13.9358 1.27553 14.0654 1.73562 14.0654H12.9573C13.4236 14.0654 13.8849 13.9333 14.2141 13.6066C14.5433 13.2799 14.6829 12.8074 14.6829 12.3398V10.5543H13.4062V12.3398C13.4062 12.5742 13.3563 12.6602 13.3164 12.6989C13.2765 12.7375 13.1929 12.7887 12.9573 12.7887H1.73562C1.49373 12.7887 1.4052 12.735 1.36655 12.6989C1.3279 12.6627 1.27678 12.6016 1.27678 12.3697V10.5543H0Z" fill="#009FE3"/>
</svg>
