<?xml version="1.0" encoding="UTF-8"?>
<svg width="12px" height="26px" viewBox="0 0 12 26" version="1.1" xmlns="http://www.w3.org/2000/svg" xmlns:xlink="http://www.w3.org/1999/xlink">
    <title>0673FA49-BD56-490C-8052-6F7BE1E725E4</title>
    <g id="V2" stroke="none" stroke-width="1" fill="none" fill-rule="evenodd">
        <g id="Home-V2" transform="translate(-557.000000, -3388.000000)" fill="#EF6F23" fill-rule="nonzero">
            <path d="M558.090865,3414 C558.0099,3414 557.928935,3413.98375 557.854362,3413.94719 C557.607207,3413.83344 557.48789,3413.56328 557.573116,3413.31547 L561.698058,3401.52 L557.545418,3401.52 C557.362182,3401.52 557.19386,3401.43266 557.091589,3401.28844 C556.989318,3401.14422 556.972273,3400.96141 557.042584,3400.80094 L562.497053,3388.32094 C562.580149,3388.12594 562.78043,3388 562.999887,3388 L568.181633,3388 C568.366999,3388 568.539582,3388.08938 568.639723,3388.23766 C568.739864,3388.38594 568.754778,3388.57078 568.680205,3388.73125 L564.386941,3397.88 L568.454356,3397.88 C568.654638,3397.88 568.837873,3397.98562 568.933753,3398.15219 C569.029632,3398.32078 569.02111,3398.52391 568.910316,3398.68437 L558.546825,3413.76438 C558.442422,3413.91672 558.269839,3414 558.090865,3414 Z" id="electricity"></path>
        </g>
    </g>
</svg>