<svg width="25" height="18" viewBox="0 0 25 18" fill="none" xmlns="http://www.w3.org/2000/svg">
<path d="M12.375 0C3.375 0 0 9 0 9C0 9 3.375 18 12.375 18C21.375 18 24.75 9 24.75 9C24.75 9 21.375 0 12.375 0ZM12.375 3.375C15.4811 3.375 18 5.89388 18 9C18 12.1061 15.4811 14.625 12.375 14.625C9.26888 14.625 6.75 12.1061 6.75 9C6.75 5.89388 9.26888 3.375 12.375 3.375ZM12.375 5.625C11.4799 5.625 10.6214 5.98058 9.98851 6.61351C9.35558 7.24645 9 8.10489 9 9C9 9.89511 9.35558 10.7536 9.98851 11.3865C10.6214 12.0194 11.4799 12.375 12.375 12.375C13.2701 12.375 14.1286 12.0194 14.7615 11.3865C15.3944 10.7536 15.75 9.89511 15.75 9C15.75 8.10489 15.3944 7.24645 14.7615 6.61351C14.1286 5.98058 13.2701 5.625 12.375 5.625Z" fill="#171717"/>
</svg>
