<?xml version="1.0" encoding="UTF-8"?>
<svg width="15px" height="15px" viewBox="0 0 15 15" version="1.1" xmlns="http://www.w3.org/2000/svg" xmlns:xlink="http://www.w3.org/1999/xlink">
    <title>436D9B51-5AEB-4822-88B0-720036DA5904</title>
    <g id="V2" stroke="none" stroke-width="1" fill="none" fill-rule="evenodd">
        <g id="Home-V2" transform="translate(-1530.000000, -16.000000)" fill="#4E4E4E" fill-rule="nonzero">
            <path d="M1543.63636,16 L1531.36364,16 C1530.61023,16 1530,16.6102273 1530,17.3636364 L1530,29.6363636 C1530,30.3897727 1530.61023,31 1531.36364,31 L1538.18182,31 L1538.18182,24.8636364 L1536.13636,24.8636364 L1536.13636,22.8181818 L1538.18182,22.8181818 L1538.18182,21.7197727 C1538.18182,19.6402273 1539.195,18.7272727 1540.92341,18.7272727 C1541.75114,18.7272727 1542.18886,18.7886364 1542.39614,18.8165909 L1542.39614,20.7727273 L1541.21727,20.7727273 C1540.48364,20.7727273 1540.22727,21.16 1540.22727,21.9440909 L1540.22727,22.8181818 L1542.37773,22.8181818 L1542.08591,24.8636364 L1540.22727,24.8636364 L1540.22727,31 L1543.63636,31 C1544.38977,31 1545,30.3897727 1545,29.6363636 L1545,17.3636364 C1545,16.6102273 1544.38909,16 1543.63636,16 Z" id="fb"></path>
        </g>
    </g>
</svg>