<?xml version="1.0" encoding="UTF-8"?>
<svg width="89px" height="89px" viewBox="0 0 89 89" version="1.1" xmlns="http://www.w3.org/2000/svg" xmlns:xlink="http://www.w3.org/1999/xlink">
    <title>4C9A4511-BAE7-4C26-ADD1-1E2CCAFF4014</title>
    <g id="V2" stroke="none" stroke-width="1" fill="none" fill-rule="evenodd">
        <g id="Sectors" transform="translate(-1101.000000, -2219.000000)">
            <g id="flexibility" transform="translate(1101.000000, 2219.000000)">
                <circle id="Oval-Copy-2" stroke="#FFFFFF" fill="#FFFFFF" cx="44.5" cy="44.5" r="44"></circle>
                <g id="icons8-crane" transform="translate(29.000000, 28.000000)" fill="#EF6F23" fill-rule="nonzero">
                    <path d="M29.0733821,1.03109378 C29.0435714,1.03651422 29.0137614,1.04464384 28.9866606,1.05277415 L26.3633353,1.05277415 C26.1763422,1.05277415 25.9947689,1.13678578 25.8646867,1.2695779 L16.1085182,11.177509 L16.9540528,12.2615277 L19.5773781,9.61652205 L20.0543463,14.1477203 L19.2955332,15.2750998 L20.0760267,16.2940774 C20.1112572,16.340148 20.151908,16.378089 20.1844286,16.4241596 L28.4446512,4.04466582 L28.4446512,19.285969 C28.0300143,19.527163 27.7508793,19.966191 27.7508793,20.4783896 C27.7508793,20.9905883 28.0300143,21.4296162 28.4446512,21.6708102 L28.4446512,22.5380252 C28.4446512,23.1884364 28.8674186,23.8009074 29.52867,23.9906103 C30.1817911,24.1776034 30.6397895,24.8253047 30.5042868,25.594958 C30.409435,26.1315476 29.9378872,26.6058053 29.3985877,26.7006571 C28.488012,26.86055 27.7508793,26.1938782 27.7508793,25.3347935 C27.7535891,25.0854692 27.6235069,24.8524055 27.4067032,24.7250332 C27.1898994,24.6003707 26.9243152,24.6003707 26.7075114,24.7250332 C26.4907077,24.8524055 26.3606254,25.0854692 26.3633353,25.3347935 C26.3633353,27.0231528 27.9161919,28.3673361 29.6370718,28.0665207 C30.7725816,27.8659776 31.6723172,26.9689519 31.8701504,25.8334421 C32.1248952,24.380857 31.2143194,23.0420943 29.8972363,22.6681075 C29.8701362,22.6599771 29.8321952,22.6030663 29.8321952,22.5380252 L29.8321952,21.6708102 C30.2468322,21.4296162 30.5259672,20.9905883 30.5259672,20.4783896 C30.5259672,19.966191 30.2468322,19.527163 29.8321952,19.285969 L29.8321952,1.78990688 C29.8349051,1.75738632 29.8349051,1.71402557 29.8321952,1.68150501 C29.8267755,1.65169432 29.8186452,1.62188433 29.8105148,1.59478351 C29.7969648,1.53516283 29.7752844,1.47554145 29.7454737,1.42134052 C29.715663,1.36713958 29.6804326,1.31564852 29.6370718,1.2695779 C29.6181013,1.24518765 29.596421,1.22350727 29.5720307,1.20453677 C29.5205397,1.16117602 29.460919,1.12323572 29.3985877,1.0961349 C29.3769073,1.08800459 29.3579368,1.07987497 29.3335466,1.07445453 C29.249535,1.04464384 29.1628135,1.0283839 29.0733821,1.03109378 Z M26.6451802,2.44031812 L27.8376008,2.44031812 L25.47444,5.99589952 L25.2793166,3.8061817 L26.6451802,2.44031812 Z M24.0001745,5.12868454 L24.1736175,7.25336124 L21.7454156,7.40512386 L24.0001745,5.12868454 Z M23.6966492,8.66258558 L21.2467669,12.3265689 L20.8782006,8.85770895 L23.6966492,8.66258558 Z M4.16263189,10.7655819 C3.01628192,10.7655819 2.08131595,11.7005479 2.08131595,12.8468978 L2.08131595,21.1721616 C2.08131595,22.3185116 3.01628192,23.2534776 4.16263189,23.2534776 L6.24394784,23.2534776 L6.24394784,24.6410215 L4.16263189,24.6410215 C1.86722207,24.6410215 0,26.5082436 0,28.8036534 C0,31.0990632 1.86722207,32.9662853 4.16263189,32.9662853 L19.4256155,32.9662853 C21.7210253,32.9662853 23.5882474,31.0990632 23.5882474,28.8036534 C23.5882474,26.5082436 21.7210253,24.6410215 19.4256155,24.6410215 L17.3442995,24.6410215 L17.3442995,23.2534776 L18.0380715,23.2534776 C19.1844215,23.2534776 20.1193875,22.3185116 20.1193875,21.1721616 L20.1193875,18.3970737 C20.1139677,17.7900232 19.9052936,17.1856826 19.5340174,16.7060045 L15.5448285,11.5677557 C15.1518719,11.0663973 14.5339812,10.7655819 13.89712,10.7655819 L4.16263189,10.7655819 Z M11.3171555,12.1531259 L13.89712,12.1531259 C14.1112139,12.1531259 14.3090471,12.2452678 14.4391294,12.4132904 L18.4499986,17.5732195 C18.6342818,17.8089937 18.7264238,18.0962583 18.7318435,18.3970737 L13.0082247,18.3970737 L11.3171555,12.1531259 Z M7.6314918,23.2534776 L15.9567556,23.2534776 L15.9567556,24.6410215 L7.6314918,24.6410215 L7.6314918,23.2534776 Z M4.16263189,27.4161095 C4.92957531,27.4161095 5.55017585,28.03671 5.55017585,28.8036534 C5.55017585,29.5705968 4.92957531,30.1911974 4.16263189,30.1911974 C3.39568847,30.1911974 2.77508793,29.5705968 2.77508793,28.8036534 C2.77508793,28.03671 3.39568847,27.4161095 4.16263189,27.4161095 Z M8.32526378,27.4161095 C9.0922072,27.4161095 9.71280774,28.03671 9.71280774,28.8036534 C9.71280774,29.5705968 9.0922072,30.1911974 8.32526378,30.1911974 C7.55832036,30.1911974 6.93771982,29.5705968 6.93771982,28.8036534 C6.93771982,28.03671 7.55832036,27.4161095 8.32526378,27.4161095 Z M15.2629836,27.4161095 C16.029927,27.4161095 16.6505276,28.03671 16.6505276,28.8036534 C16.6505276,29.5705968 16.029927,30.1911974 15.2629836,30.1911974 C14.4960402,30.1911974 13.8754396,29.5705968 13.8754396,28.8036534 C13.8754396,28.03671 14.4960402,27.4161095 15.2629836,27.4161095 Z M19.4256155,27.4161095 C20.1925589,27.4161095 20.8131595,28.03671 20.8131595,28.8036534 C20.8131595,29.5705968 20.1925589,30.1911974 19.4256155,30.1911974 C18.6586721,30.1911974 18.0380715,29.5705968 18.0380715,28.8036534 C18.0380715,28.03671 18.6586721,27.4161095 19.4256155,27.4161095 Z" id="Shape"></path>
                </g>
            </g>
        </g>
    </g>
</svg>