<?xml version="1.0" encoding="UTF-8"?>
<svg width="15px" height="15px" viewBox="0 0 15 15" version="1.1" xmlns="http://www.w3.org/2000/svg" xmlns:xlink="http://www.w3.org/1999/xlink">
    <title>0340FDCF-DF86-463A-B93C-B8954931FE35</title>
    <g id="V2" stroke="none" stroke-width="1" fill="none" fill-rule="evenodd">
        <g id="Home-V2" transform="translate(-1580.000000, -16.000000)" fill="#FFFFFF" fill-rule="nonzero">
            <path d="M1584.37378,16 C1581.9619,16 1580,17.9637207 1580,20.3762206 L1580,26.6262206 C1580,29.0380956 1581.96372,31 1584.37622,31 L1590.62622,31 C1593.0381,31 1595,29.0362794 1595,26.6237794 L1595,20.3737793 C1595,17.9619043 1593.03628,16 1590.62378,16 L1584.37378,16 Z M1591.875,18.5 C1592.22,18.5 1592.5,18.78 1592.5,19.125 C1592.5,19.47 1592.22,19.75 1591.875,19.75 C1591.53,19.75 1591.25,19.47 1591.25,19.125 C1591.25,18.78 1591.53,18.5 1591.875,18.5 Z M1587.5,19.75 C1589.56813,19.75 1591.25,21.431875 1591.25,23.5 C1591.25,25.568125 1589.56813,27.25 1587.5,27.25 C1585.43187,27.25 1583.75,25.568125 1583.75,23.5 C1583.75,21.431875 1585.43187,19.75 1587.5,19.75 Z M1587.5,21 C1586.11929,21 1585,22.1192881 1585,23.5 C1585,24.8807119 1586.11929,26 1587.5,26 C1588.88071,26 1590,24.8807119 1590,23.5 C1590,22.1192881 1588.88071,21 1587.5,21 Z" id="ig"></path>
        </g>
    </g>
</svg>