<?xml version="1.0" encoding="UTF-8"?>
<svg width="31px" height="22px" viewBox="0 0 31 22" version="1.1" xmlns="http://www.w3.org/2000/svg" xmlns:xlink="http://www.w3.org/1999/xlink">
    <title>4F3B1248-591B-4D85-AD8B-EB016D0985E7</title>
    <g id="V2" stroke="none" stroke-width="1" fill="none" fill-rule="evenodd">
        <g id="Home-V2" transform="translate(-547.000000, -3924.000000)" fill="#EF6F23" fill-rule="nonzero">
            <path d="M551.34,3924 C550.661875,3924 550.1,3924.56964 550.1,3925.25714 L550.1,3931.54286 L549.98375,3931.54286 L549.8675,3931.60179 C549.775469,3931.64107 547.62,3932.57411 547.62,3935.29464 L547.62,3937.39643 C548.608125,3936.49531 549.911094,3935.94286 551.34,3935.94286 L566.22,3935.94286 C567.971016,3935.94286 569.535547,3936.76049 570.56,3938.04464 L570.56,3933.42857 C570.56,3932.38996 569.724453,3931.54286 568.7,3931.54286 L566.22,3931.54286 L566.22,3929.02857 L564.98,3929.02857 L564.98,3931.54286 L560.64,3931.54286 L560.64,3925.25714 C560.64,3924.56964 560.078125,3924 559.4,3924 L551.34,3924 Z M551.34,3925.25714 L559.4,3925.25714 L559.4,3932.8 L551.34,3932.8 L551.34,3925.25714 Z M571.8,3932.17143 L571.8,3940.97143 L570.501875,3940.97143 C570.199141,3938.84263 568.402109,3937.2 566.22,3937.2 L551.34,3937.2 C548.947188,3937.2 547,3939.17411 547,3941.6 C547,3944.02589 548.947188,3946 551.34,3946 L566.22,3946 C568.402109,3946 570.199141,3944.35737 570.501875,3942.22857 L571.8,3942.22857 L571.8,3945.37143 L578,3945.37143 L578,3944.38929 L577.845,3944.2125 C577.80625,3944.17076 573.977266,3939.87879 573.136875,3932.72143 L573.07875,3932.17143 L571.8,3932.17143 Z M551.34,3940.34286 C552.025391,3940.34286 552.58,3940.90513 552.58,3941.6 C552.58,3942.29487 552.025391,3942.85714 551.34,3942.85714 C550.654609,3942.85714 550.1,3942.29487 550.1,3941.6 C550.1,3940.90513 550.654609,3940.34286 551.34,3940.34286 Z M556.3,3940.34286 C556.985391,3940.34286 557.54,3940.90513 557.54,3941.6 C557.54,3942.29487 556.985391,3942.85714 556.3,3942.85714 C555.614609,3942.85714 555.06,3942.29487 555.06,3941.6 C555.06,3940.90513 555.614609,3940.34286 556.3,3940.34286 Z M561.26,3940.34286 C561.945391,3940.34286 562.5,3940.90513 562.5,3941.6 C562.5,3942.29487 561.945391,3942.85714 561.26,3942.85714 C560.574609,3942.85714 560.02,3942.29487 560.02,3941.6 C560.02,3940.90513 560.574609,3940.34286 561.26,3940.34286 Z M566.22,3940.34286 C566.905391,3940.34286 567.46,3940.90513 567.46,3941.6 C567.46,3942.29487 566.905391,3942.85714 566.22,3942.85714 C565.534609,3942.85714 564.98,3942.29487 564.98,3941.6 C564.98,3940.90513 565.534609,3940.34286 566.22,3940.34286 Z" id="industrial"></path>
        </g>
    </g>
</svg>