<?xml version="1.0" encoding="UTF-8"?>
<svg width="15px" height="15px" viewBox="0 0 15 15" version="1.1" xmlns="http://www.w3.org/2000/svg" xmlns:xlink="http://www.w3.org/1999/xlink">
    <title>E3A35D58-93B0-4799-81C2-6DE130AE80A6</title>
    <g id="V2" stroke="none" stroke-width="1" fill="none" fill-rule="evenodd">
        <g id="Home-V2" transform="translate(-1555.000000, -16.000000)" fill="#FFFFFF" fill-rule="nonzero">
            <path d="M1568.63636,16 L1556.36364,16 C1555.61023,16 1555,16.6102273 1555,17.3636364 L1555,29.6363636 C1555,30.3897727 1555.61023,31 1556.36364,31 L1568.63636,31 C1569.38977,31 1570,30.3897727 1570,29.6363636 L1570,17.3636364 C1570,16.6102273 1569.38977,16 1568.63636,16 Z M1559.74136,28.2727273 L1557.73,28.2727273 L1557.73,21.8009091 L1559.74136,21.8009091 L1559.74136,28.2727273 Z M1558.71523,20.8756818 C1558.06682,20.8756818 1557.5425,20.35 1557.5425,19.7029545 C1557.5425,19.0559091 1558.0675,18.5309091 1558.71523,18.5309091 C1559.36159,18.5309091 1559.88727,19.0565909 1559.88727,19.7029545 C1559.88727,20.35 1559.36159,20.8756818 1558.71523,20.8756818 Z M1567.27545,28.2727273 L1565.26545,28.2727273 L1565.26545,25.1254545 C1565.26545,24.3747727 1565.25182,23.4093182 1564.22023,23.4093182 C1563.17364,23.4093182 1563.01273,24.2268182 1563.01273,25.0709091 L1563.01273,28.2727273 L1561.00273,28.2727273 L1561.00273,21.8009091 L1562.93227,21.8009091 L1562.93227,22.6852273 L1562.95955,22.6852273 C1563.22818,22.1765909 1563.88409,21.64 1564.8625,21.64 C1566.89909,21.64 1567.27545,22.9804545 1567.27545,24.7231818 L1567.27545,28.2727273 L1567.27545,28.2727273 Z" id="lin"></path>
        </g>
    </g>
</svg>