<?xml version="1.0" encoding="UTF-8"?>
<svg width="15px" height="22px" viewBox="0 0 15 22" version="1.1" xmlns="http://www.w3.org/2000/svg" xmlns:xlink="http://www.w3.org/1999/xlink">
    <title>A4E52A43-47DD-41DA-BD02-25B6DE0CBC00</title>
    <g id="V2" stroke="none" stroke-width="1" fill="none" fill-rule="evenodd">
        <g id="Project" transform="translate(-1233.000000, -1401.000000)" fill="#EF6F23" fill-rule="nonzero">
            <path d="M1240.5,1401 C1236.36548,1401 1233,1404.29069 1233,1408.33333 C1233,1414.80192 1239.8573,1422.5166 1240.14844,1422.84245 C1240.23816,1422.94271 1240.3645,1423 1240.5,1423 C1240.64465,1422.99105 1240.76184,1422.94271 1240.85156,1422.84245 C1241.1427,1422.51123 1248,1414.66406 1248,1408.33333 C1248,1404.29069 1244.63452,1401 1240.5,1401 Z M1240.5,1406.04167 C1242.05273,1406.04167 1243.3125,1407.27344 1243.3125,1408.79167 C1243.3125,1410.3099 1242.05273,1411.54167 1240.5,1411.54167 C1238.94727,1411.54167 1237.6875,1410.3099 1237.6875,1408.79167 C1237.6875,1407.27344 1238.94727,1406.04167 1240.5,1406.04167 Z" id="location"></path>
        </g>
    </g>
</svg>