<svg width="14" height="21" viewBox="0 0 14 21" fill="none" xmlns="http://www.w3.org/2000/svg">
<path d="M7 0C3.14111 0 0 3.14111 0 7C0 13.1746 6.40015 20.5386 6.67188 20.8496C6.75562 20.9453 6.87354 21 7 21C7.13501 20.9915 7.24438 20.9453 7.32812 20.8496C7.59985 20.5334 14 13.043 14 7C14 3.14111 10.8589 0 7 0ZM7 4.8125C8.44922 4.8125 9.625 5.98828 9.625 7.4375C9.625 8.88672 8.44922 10.0625 7 10.0625C5.55078 10.0625 4.375 8.88672 4.375 7.4375C4.375 5.98828 5.55078 4.8125 7 4.8125Z" fill="#009FE3"/>
</svg>
