<svg width="31" height="29" viewBox="0 0 31 29" fill="none" xmlns="http://www.w3.org/2000/svg">
<path d="M10.54 0C8.82773 0 7.44 1.41013 7.44 3.15003C7.44 4.88994 8.82773 6.30007 10.54 6.30007C12.2523 6.30007 13.64 4.88994 13.64 3.15003C13.64 1.41013 12.2523 0 10.54 0ZM20.3438 0C18.6315 0 17.2437 1.41013 17.2437 3.15003C17.2437 4.88994 18.6315 6.30007 20.3438 6.30007C22.056 6.30007 23.4438 4.88994 23.4438 3.15003C23.4438 1.41013 22.056 0 20.3438 0ZM10.54 6.93007C9.84977 6.93007 9.21039 7.0925 8.64125 7.38289C9.80375 8.30575 10.5594 9.74788 10.5594 11.3598C10.5594 12.9373 9.84008 14.3523 8.71875 15.2777C9.62211 15.7551 10.4116 16.4171 11.0244 17.2464C10.7289 16.6017 10.5594 15.8954 10.5594 15.1399C10.5594 12.6371 12.3685 10.5477 14.725 10.1589C14.2261 8.28361 12.5574 6.93007 10.54 6.93007ZM20.3438 6.93007C18.336 6.93007 16.6649 8.27376 16.1588 10.1392C18.5879 10.464 20.4794 12.5829 20.4794 15.1399C20.4794 15.8461 20.3316 16.518 20.0725 17.1283C20.678 16.3506 21.436 15.7108 22.3006 15.258C21.1866 14.3327 20.4794 12.9324 20.4794 11.3598C20.4794 9.77741 21.1938 8.36728 22.32 7.44196C21.7266 7.11957 21.0703 6.93007 20.3438 6.93007ZM5.59938 7.57977C3.54562 7.57977 1.87937 9.27291 1.87937 11.3598C1.87937 13.4467 3.54562 15.1399 5.59938 15.1399C7.65313 15.1399 9.31938 13.4467 9.31938 11.3598C9.31938 9.27291 7.65313 7.57977 5.59938 7.57977ZM25.4394 7.57977C23.3856 7.57977 21.7194 9.27291 21.7194 11.3598C21.7194 13.4467 23.3856 15.1399 25.4394 15.1399C27.4931 15.1399 29.1594 13.4467 29.1594 11.3598C29.1594 9.27291 27.4931 7.57977 25.4394 7.57977ZM15.5194 11.3598C13.4656 11.3598 11.7994 13.053 11.7994 15.1399C11.7994 17.2267 13.4656 18.9199 15.5194 18.9199C17.5731 18.9199 19.2394 17.2267 19.2394 15.1399C19.2394 13.053 17.5731 11.3598 15.5194 11.3598ZM5.58 15.7502C2.50422 15.7502 0 18.2923 0 21.4202V23.6253C0 23.8221 0.0944533 24.019 0.251875 24.1371C0.394766 24.2479 1.76313 25.2003 5.58 25.2003C6.90234 25.2003 7.93164 25.0797 8.71875 24.9246C8.79867 22.9879 9.65117 21.2529 10.9856 20.0421C10.3802 17.5762 8.19078 15.7502 5.58 15.7502ZM25.42 15.7502C22.8189 15.7502 20.6295 17.5688 20.0144 20.0224C21.3682 21.2357 22.2425 22.9903 22.32 24.9443C23.1023 25.0969 24.117 25.2003 25.42 25.2003C29.2369 25.2003 30.6052 24.2479 30.7481 24.1371C30.9055 24.019 31 23.8246 31 23.6253V21.4202C31 18.2923 28.4982 15.7502 25.42 15.7502ZM15.5194 19.5499C12.4436 19.5499 9.93937 22.0921 9.93937 25.22V27.425C9.93937 27.6243 10.0338 27.799 10.1912 27.9172C10.3341 28.0279 11.7025 29 15.5194 29C19.3363 29 20.7046 28.0279 20.8475 27.9172C21.0049 27.799 21.0994 27.6219 21.0994 27.425V25.22C21.0994 22.0921 18.5976 19.5499 15.5194 19.5499Z" fill="#009FE3"/>
</svg>
