<svg width="22" height="29" viewBox="0 0 22 29" fill="none" xmlns="http://www.w3.org/2000/svg">
<path d="M20.2632 0H1.73684C0.780222 0 0 0.781641 0 1.74V29H22V1.74C22 0.781641 21.2198 0 20.2632 0ZM12.7368 13.34V9.86H17.9474V13.34H12.7368ZM17.9474 15.66V19.14H12.7368V15.66H17.9474ZM12.7368 7.54V4.06H17.9474V7.54H12.7368ZM4.05263 13.34V9.86H9.26316V13.34H4.05263ZM9.26316 15.66V19.14H4.05263V15.66H9.26316ZM4.05263 7.54V4.06H9.26316V7.54H4.05263ZM4.05263 21.46H9.26316V24.94H4.05263V21.46ZM12.7368 21.46H17.9474V27.84H12.7368V21.46Z" fill="#009FE3"/>
</svg>
