<svg width="21" height="20" viewBox="0 0 21 20" fill="none" xmlns="http://www.w3.org/2000/svg">
<path d="M8.04606 0C6.61273 0 5.54395 0.412943 4.90479 1.26628C4.12437 2.30836 3.99226 3.93615 4.47184 6.09782C4.28851 6.32282 4.15563 6.6723 4.2098 7.12646C4.31813 8.03063 4.66348 8.40143 4.95931 8.55143C5.09681 9.25143 5.47949 10.0294 5.85449 10.4085C5.85449 10.4085 5.85856 11.4583 5.80648 11.9271C5.55648 12.5021 4.7418 12.7457 3.7793 13.1291C2.17096 13.7707 0.175228 14.5664 0.0252279 17.0581L0 17.5H12.4585C13.1043 18.9667 14.5752 20 16.2752 20C18.5669 20 20.4419 18.125 20.4419 15.8333C20.4419 13.7458 18.8874 12.0039 16.8791 11.7122C16.8791 11.7122 16.867 11.7083 16.8628 11.7041C16.1961 11.4083 15.2523 10.6896 15.0773 10.3646C15.0252 10 15.0293 9.11214 15.0293 9.11214C15.3751 8.79548 15.8417 8.14622 16.0042 7.48372C16.2751 7.33789 16.5839 6.9918 16.6797 6.17513C16.7297 5.76263 16.6128 5.44199 16.4461 5.22949C16.6545 4.30449 16.9437 2.53462 16.2337 1.4917C15.9425 1.06378 15.5173 0.796094 14.9756 0.683594C14.6173 0.241927 13.9458 0 13.0583 0C12.3999 0 11.8463 0.11263 11.3713 0.341797C11.7296 0.558464 12.0378 0.85026 12.2795 1.20443C13.0045 2.25859 13.1505 3.80853 12.7214 5.92936C12.913 6.3127 12.9879 6.7542 12.9338 7.22087C12.8171 8.18753 12.459 8.73779 12.0923 9.05029C11.9173 9.67529 11.6127 10.3125 11.2752 10.7625C11.2752 11.0667 11.2748 11.3333 11.2915 11.6333C11.5165 11.875 12.2631 12.1669 12.8215 12.3877C13.0506 12.4752 13.5588 12.6831 13.5588 12.6831C13.3338 12.8748 13.1292 13.0958 12.95 13.3333C12.8042 13.275 12.6628 13.2166 12.5212 13.1624C11.5587 12.7874 10.744 12.4979 10.494 11.9271C10.4419 11.4583 10.446 10.4541 10.446 10.4541C10.821 10.0708 11.2125 9.25407 11.3542 8.54574C11.65 8.39574 11.9962 8.02493 12.1045 7.12077C12.1587 6.66243 12.0209 6.31224 11.8376 6.08724C12.0542 5.11224 12.4626 2.94564 11.5918 1.6748C11.3418 1.3123 11.0129 1.05036 10.6087 0.887858C10.5421 0.858691 10.246 0.771061 10.1668 0.754395C9.77933 0.266895 9.03773 0 8.04606 0ZM16.2752 12.5C18.1086 12.5 19.6086 14 19.6086 15.8333C19.6086 17.6667 18.1086 19.1667 16.2752 19.1667C14.4419 19.1667 12.9419 17.6667 12.9419 15.8333C12.9419 14 14.4419 12.5 16.2752 12.5ZM14.1919 15.4167C14.0669 15.4167 13.9629 15.4585 13.89 15.5314C13.8535 15.5679 13.8249 15.6117 13.8053 15.6624C13.7858 15.7132 13.7752 15.7708 13.7752 15.8333C13.7752 15.9583 13.8171 16.0623 13.89 16.1353C13.9264 16.1717 13.9702 16.2004 14.021 16.2199C14.0718 16.2394 14.1294 16.25 14.1919 16.25H18.3586C18.6086 16.25 18.7752 16.0833 18.7752 15.8333C18.7752 15.5833 18.6084 15.4167 18.4001 15.4167H14.1919Z" fill="#009FE3"/>
</svg>
