<?xml version="1.0" encoding="UTF-8"?>
<svg width="18px" height="25px" viewBox="0 0 18 25" version="1.1" xmlns="http://www.w3.org/2000/svg" xmlns:xlink="http://www.w3.org/1999/xlink">
    <title>1ED2D5BC-E034-4F6F-85B2-B2CC8F03BD61</title>
    <g id="V2" stroke="none" stroke-width="1" fill="none" fill-rule="evenodd">
        <g id="Home-V2" transform="translate(-554.000000, -3498.000000)" fill="#EF6F23" fill-rule="nonzero">
            <path d="M565.415348,3523 C565.208541,3523 565.017343,3522.87315 564.941253,3522.67604 C564.853458,3522.45552 564.931498,3522.20377 565.12855,3522.06911 C566.535227,3521.10896 567.965315,3518.90566 567.984826,3516.14618 C567.998483,3514.17903 567.311728,3511.21073 564.135487,3507.85213 C564.29742,3512.03623 562.539562,3515.56267 562.455669,3515.7266 C562.352265,3515.93346 562.123998,3516.04275 561.899631,3515.99591 C561.673315,3515.94908 561.507479,3515.75783 561.491871,3515.5295 C561.491871,3515.50998 561.365056,3513.86483 560.258834,3512.49485 C559.991546,3513.36914 559.694993,3514.06584 559.427704,3514.69814 C558.91654,3515.89834 558.514632,3516.84679 558.514632,3518.46657 C558.514632,3519.70384 559.517451,3521.15774 560.481248,3521.9247 C560.637329,3522.01252 560.742684,3522.1784 560.742684,3522.3716 C560.742684,3522.65263 560.514416,3522.88096 560.231519,3522.88096 C560.227618,3522.88096 560.225667,3522.88096 560.221765,3522.88096 C560.167136,3522.88096 560.110557,3522.8712 560.055929,3522.85363 C556.150011,3521.50512 554,3518.77296 554,3515.16065 C554,3512.08893 555.406677,3509.61242 556.895296,3506.98955 C558.235639,3504.62818 559.755473,3501.95261 560.50271,3498.40471 C560.54173,3498.22712 560.672448,3498.08075 560.846087,3498.02416 C561.021678,3497.96756 561.212877,3498.01245 561.347496,3498.13735 C568.414047,3504.66526 572,3509.08355 572,3515.10211 C572,3519.06179 569.202255,3522.45552 565.489486,3522.9961 C565.464123,3523 565.43876,3523 565.415348,3523 Z" id="oil-gas"></path>
        </g>
    </g>
</svg>