<?xml version="1.0" encoding="UTF-8"?>
<svg width="89px" height="89px" viewBox="0 0 89 89" version="1.1" xmlns="http://www.w3.org/2000/svg" xmlns:xlink="http://www.w3.org/1999/xlink">
    <title>CF5D8062-9853-4DB2-B90F-A35DF385C830</title>
    <g id="V2" stroke="none" stroke-width="1" fill="none" fill-rule="evenodd">
        <g id="Sectors" transform="translate(-729.000000, -2219.000000)">
            <g id="ourpeople" transform="translate(729.000000, 2219.000000)">
                <circle id="Oval-Copy" stroke="#FFFFFF" fill="#FFFFFF" cx="44.5" cy="44.5" r="44"></circle>
                <g id="icons8-people" transform="translate(25.000000, 30.000000)" fill="#EF6F23" fill-rule="nonzero">
                    <path d="M21.2417763,0 C14.2413655,0 11.6416532,5.40912868 13.6430921,9.99177632 C13.3932979,10.1583063 12.9923929,10.6794821 13.0756579,11.5953947 C13.2421879,13.2606908 13.9915705,13.6585113 14.4078947,13.7417763 C14.5744247,15.3238074 15.5766861,17.1679689 16.1595395,17.4177632 C16.1595395,18.5002058 16.1441203,19.4068666 16.0608553,20.5756579 C14.7841287,23.9278374 6.62417763,23.1506992 5.57565789,29.1611842 C5.52939947,29.4233139 5.80078105,30 6.34046053,30 L33.1578947,30 C33.9597039,30 33.9442847,29.4078947 33.8980263,29.1365132 C32.8310037,23.1506992 24.6895563,23.9247537 23.4128289,20.5756579 C23.3295639,19.3236024 23.3141447,18.5002058 23.3141447,17.4177632 C23.8969982,17.1679689 24.8252471,15.2405432 24.9917763,13.7417763 C25.4081005,13.7417763 26.0742189,13.2391034 26.3240132,11.5707237 C26.4072782,10.6548111 26.0649671,10.0750413 25.7319079,9.99177632 C27.0641447,8.32648026 26.8236024,1.50493421 21.9078947,1.50493421 L21.2417763,0 Z M11.9654605,3.94736842 C6.69510711,4.03680079 4.38528,8.23087974 5.97039474,11.8174342 C5.80078105,11.9006992 5.46772184,12.3416945 5.55098684,13.1003289 C5.72060053,14.4510695 6.22327342,14.7779605 6.5625,14.7779605 C6.72903,16.0423524 7.47532895,17.4609379 7.89473684,17.7138158 C7.89473684,18.5557153 7.90398868,18.5310442 7.82072368,19.5394737 C7.13610237,21.6981908 0,21.5378289 0,26.8421053 C0,26.8421053 0,27.6315789 0.789473684,27.6315789 L4.36677632,27.6315789 C5.57257421,24.2208063 8.85074053,22.9070724 11.3240132,21.9325658 C12.6870892,21.3959708 14.0840874,20.8532076 14.5065789,20.1809211 C14.5528374,19.4469576 14.5775084,18.8240132 14.5805921,18.1332237 C13.8312087,17.275905 13.2730263,15.9405837 13.0016447,14.8026316 C12.3601974,14.3277142 11.6663242,13.4148853 11.4967105,11.71875 C11.4226974,10.9138571 11.5923111,10.244655 11.8667763,9.72039474 C11.2407482,7.77446526 11.2808392,5.74218789 11.9654605,3.94736842 Z M30,3.94736842 C29.2444492,3.94736842 28.3532076,4.00904605 27.5082237,4.14473684 C28.1404192,5.99814947 28.1650903,8.21237684 27.6069079,9.79440789 C27.8536184,10.3371711 27.9677218,10.9971221 27.9029605,11.71875 L27.8782895,11.7680921 L27.8782895,11.8174342 C27.6439145,13.3686268 27.0733966,14.3122942 26.3980263,14.8273026 C26.1420639,15.8943261 25.6208882,17.2419821 24.8930921,18.1085526 C24.8961758,18.7870066 24.9208468,19.3976155 24.9671053,20.1809211 C25.3895968,20.8532076 26.7896795,21.3959708 28.1496711,21.9325658 C30.61986,22.9039887 33.8980263,24.2208063 35.1069079,27.6315789 L38.6842105,27.6315789 C39.4736853,27.6315789 39.4736853,26.8667763 39.4736853,26.8667763 C39.4767679,20.7606908 32.7168995,22.2070311 31.7023026,19.4161184 C31.6159539,18.4847866 31.6036184,18.5711353 31.6036184,17.6398026 C32.02611,17.3869247 32.8032482,15.9652547 32.8865132,14.7779605 C33.2257405,14.7779605 33.7284126,14.4294821 33.8980263,13.0756579 C33.9812913,12.4002876 33.7314971,11.9006992 33.4786184,11.8174342 C34.4962997,10.46361 34.3297697,5.13157895 30.5180921,5.13157895 L30,3.94736842 Z" id="Shape"></path>
                </g>
            </g>
        </g>
    </g>
</svg>