<?xml version="1.0" encoding="UTF-8"?>
<svg width="26px" height="25px" viewBox="0 0 26 25" version="1.1" xmlns="http://www.w3.org/2000/svg" xmlns:xlink="http://www.w3.org/1999/xlink">
    <title>D6B4796F-3E1B-4D27-BC7F-26B43803B901</title>
    <g id="V2" stroke="none" stroke-width="1" fill="none" fill-rule="evenodd">
        <g id="Home-V2" transform="translate(-550.000000, -3604.000000)" fill="#EF6F23" fill-rule="nonzero">
            <path d="M563,3604 C560.993125,3604 559.36,3605.60236 559.36,3607.57143 C559.36,3609.5405 560.993125,3611.14286 563,3611.14286 C564.830156,3611.14286 566.337344,3609.80955 566.59125,3608.08163 L573.92,3608.08163 L573.92,3615.22449 L574.96,3615.22449 L574.96,3607.57143 C574.96,3607.29042 574.726406,3607.06122 574.44,3607.06122 L566.59125,3607.06122 C566.337344,3605.33331 564.830156,3604 563,3604 Z M553.3475,3615.22449 L552.5025,3618.28571 L556.0775,3618.28571 L555.655,3619.81633 L552.1125,3619.81633 L551.25125,3622.87755 L554.81,3622.87755 L554.3875,3624.40816 L550.86125,3624.40816 L550,3627.46939 L553.5425,3627.46939 L553.12,3629 L554.16,3629 L557.9625,3615.22449 L553.3475,3615.22449 Z M558.79125,3615.22449 L558.23875,3617.26531 L558.2225,3617.26531 L557.9625,3618.28571 L568.8825,3618.28571 L569.305,3619.81633 L557.54,3619.81633 L556.9875,3621.85714 L556.97125,3621.85714 L556.71125,3622.87755 L570.15,3622.87755 L570.5725,3624.40816 L556.28875,3624.40816 L555.73625,3626.44898 L555.72,3626.44898 L555.46,3627.46939 L571.4175,3627.46939 L571.84,3629 L572.88,3629 L569.0775,3615.22449 L558.79125,3615.22449 Z M569.97125,3615.22449 L570.8,3618.28571 L573.8225,3618.28571 L573.18875,3615.22449 L569.97125,3615.22449 Z M571.2225,3619.81633 L572.05125,3622.87755 L574.9275,3622.87755 L574.13125,3619.81633 L571.2225,3619.81633 Z M572.4575,3624.40816 L573.05875,3626.44898 L573.0425,3626.44898 L573.35125,3627.46939 L576,3627.46939 L575.74,3626.44898 L575.17125,3624.40816 L572.4575,3624.40816 Z" id="rail-transport"></path>
        </g>
    </g>
</svg>