<?xml version="1.0" encoding="UTF-8"?>
<svg width="20px" height="22px" viewBox="0 0 20 22" version="1.1" xmlns="http://www.w3.org/2000/svg" xmlns:xlink="http://www.w3.org/1999/xlink">
    <title>56244147-67CC-44B2-849A-5A61E0F3869D</title>
    <g id="V2" stroke="none" stroke-width="1" fill="none" fill-rule="evenodd">
        <g id="Project" transform="translate(-1233.000000, -1728.000000)" fill="#EF6F23" fill-rule="nonzero">
            <g id="sector" transform="translate(1233.000000, 1728.000000)">
                <path d="M9.63994565,0 C9.34850543,0 9.08695652,0.257812739 9.08695652,0.582880435 L9.08695652,4.30434783 C9.08695652,4.56776483 8.87211265,4.7826087 8.60869565,4.7826087 C8.34527865,4.7826087 8.13043478,4.56776483 8.13043478,4.30434783 L8.13043478,1.0611413 C6.33135178,1.55621591 5.33372974,3.426291 5.26086957,5.26086957 C4.76953113,5.43648122 4.30434783,5.83440909 4.30434783,7.17391304 L4.30434783,7.54755435 L4.66304348,7.63722826 C4.74337648,7.65777865 6.6732337,8.13043478 10.0434783,8.13043478 C13.4155909,8.13043478 15.34358,7.65777865 15.423913,7.63722826 L15.7826087,7.54755435 L15.7826087,7.17391304 C15.7826087,5.82506817 15.3174254,5.43087648 14.826087,5.26086957 C14.7532268,3.42815909 13.7537367,1.55621591 11.9565217,1.0611413 L11.9565217,4.30434783 C11.9565217,4.56776483 11.7435464,4.7826087 11.4782609,4.7826087 C11.2129758,4.7826087 11,4.56776483 11,4.30434783 L11,0.582880435 C11,0.257812739 10.7403192,0 10.4470109,0 L9.63994565,0 Z M5.60461957,8.78804348 C5.41593083,9.05146048 5.2776833,9.41949752 5.33559783,9.90896739 C5.46263587,10.9626359 5.87177322,11.3960598 6.2173913,11.5679348 C6.38179348,12.3955504 6.83763587,13.325917 7.27853261,13.7649457 L7.27853261,13.9891304 C7.28226926,14.4748641 7.2804007,14.8952105 7.23369565,15.4388587 C6.94038735,16.111413 5.96705187,16.5056047 4.8423913,16.9483696 C2.97418478,17.6825746 0.652003957,18.5905232 0.47826087,21.4918478 L0.448369565,22 L19.638587,22 L19.6086957,21.4918478 C19.4349526,18.5905232 17.1221127,17.6825746 15.2595109,16.9483696 C14.140455,16.5056047 13.1596467,16.111413 12.8682065,15.4388587 C12.8215015,14.8952105 12.834579,14.472996 12.8383152,13.9891304 L12.8383152,13.7649457 C13.268003,13.325917 13.7088997,12.3974185 13.8695652,11.5679348 C14.2058424,11.3941917 14.6261887,10.9588997 14.7513587,9.90896739 C14.8092732,9.41949752 14.6710257,9.05146048 14.482337,8.78804348 C13.53142,8.93189526 12.0256453,9.08695652 10.0434783,9.08695652 C8.0482337,9.08695652 6.55366848,8.93189526 5.60461957,8.78804348 Z" id="Shape"></path>
            </g>
        </g>
    </g>
</svg>