<?xml version="1.0" encoding="UTF-8"?>
<svg width="22px" height="22px" viewBox="0 0 22 22" version="1.1" xmlns="http://www.w3.org/2000/svg" xmlns:xlink="http://www.w3.org/1999/xlink">
    <title>10A0CA4B-BFD1-4866-8EBA-F9DE5F81735F</title>
    <g id="V2" stroke="none" stroke-width="1" fill="none" fill-rule="evenodd">
        <g id="Project" transform="translate(-1233.000000, -1647.000000)" fill="#EF6F23" fill-rule="nonzero">
            <g id="service" transform="translate(1233.000000, 1647.000000)">
                <path d="M16.3149038,0.383413462 C14.7068811,0.414813681 12.7551084,1.41796896 11.8461538,2.32692308 C10.6909554,3.4821215 10.5901442,5.06865996 11.5552885,6.71634615 L10.0480769,8.22355769 L10.5901442,8.75240385 C10.874399,8.51442308 11.2412863,8.38221154 11.6346154,8.38221154 C12.072566,8.38221154 12.4923378,8.54086538 12.7848558,8.83173077 L13.0757212,9.13581731 C13.4607872,9.52088331 13.6260516,10.0646036 13.5252404,10.5901442 L13.8161058,10.8942308 C13.8689904,10.8942308 13.921875,10.9041468 13.9747596,10.9074519 L14.8737981,10.0084135 C15.6307093,10.4149642 16.3595253,10.6165865 17.0288462,10.6165865 C17.8535157,10.6165865 18.5955529,10.3058894 19.2103365,9.69110577 C20.3473558,8.55408654 21.5851862,5.90324519 21.0084135,4.17788462 C20.9621394,4.0390625 20.8481071,3.93329327 20.7043269,3.90024038 C20.5605468,3.86553496 20.411809,3.91511408 20.3076923,4.01923077 L18.0600962,6.25360577 C17.9229266,6.39077535 17.6651141,6.38251223 17.5180288,6.25360577 L15.2704327,4.01923077 C15.1332631,3.88206119 15.1415267,3.62590165 15.2704327,3.47716346 L17.5180288,1.22956731 C17.620493,1.12710358 17.6700721,0.975060308 17.6370192,0.832932692 C17.6039663,0.6908055 17.4965446,0.576772731 17.359375,0.528846154 C17.0420673,0.419771635 16.6867487,0.376802885 16.3149038,0.383413462 Z M1.05769231,0.423076923 L0,1.48076923 L1.77163462,4.57451923 L2.921875,4.40264423 L9.51923077,11 L9.01682692,11.5024038 C8.724309,11.7949218 8.724309,12.3204628 9.01682692,12.6129808 L9.30769231,12.9038462 C9.51592569,13.1104266 9.86628627,13.1798378 10.140625,13.0757212 L10.4050481,12.9831731 L11.3305288,13.9086538 L11.3040865,14.1069712 C11.25616,14.5564904 11.432993,15.0291468 11.7668269,15.3629808 L17.3197115,20.9290865 C17.749399,21.358774 18.3129506,21.5901442 18.90625,21.5901442 C19.4995494,21.5901442 20.0713641,21.3505109 20.5060096,20.9158654 C21.353816,20.0283955 21.3604266,18.6104266 20.5060096,17.7560096 L14.9399038,12.1899038 C14.6242487,11.8742487 14.1714244,11.7073317 13.6838942,11.7403846 L13.4855769,11.7536058 L12.5600962,10.828125 L12.6526442,10.5637019 C12.765024,10.2744891 12.6989183,9.94891827 12.4807692,9.73076923 L12.1899038,9.43990385 C11.9221757,9.17217569 11.3470555,9.17217569 11.0793269,9.43990385 L10.5769231,9.94230769 L3.97956731,3.34495192 L4.15144231,2.19471154 L1.05769231,0.423076923 Z M7.80048077,10.4711538 L5.23557692,13.0360577 C4.943059,12.978215 4.65549869,12.9435096 4.36298077,12.9435096 C1.98317308,12.9435096 0.0396634615,14.8870192 0.0396634615,17.2668269 C0.0396634615,19.6466346 1.98317308,21.5769231 4.36298077,21.5769231 C6.74278846,21.5769231 8.67307692,19.6466346 8.67307692,17.2668269 C8.67307692,16.9082032 8.64332954,16.5975061 8.56730769,16.3149038 L10.4579327,14.4242788 C10.4529747,14.3598256 10.443059,14.2904148 10.4447115,14.2259615 L10.1670673,13.9483173 C9.64978977,14.0458234 9.08458523,13.8706429 8.71274038,13.4987981 L8.40865385,13.2079327 C7.81700742,12.6162863 7.79717569,11.6428785 8.32932692,11.0132212 L7.80048077,10.4711538 Z M13.4194712,13.234375 L18.4963942,18.3112981 L17.8882212,18.9194712 L12.8112981,13.8425481 L13.4194712,13.234375 Z M4.86538462,15.2307692 L6.34615385,16.7115385 L5.84375,18.6947115 L3.80769231,19.25 L2.32692308,17.7692308 L2.88221154,15.7860577 L4.86538462,15.2307692 Z" id="Shape"></path>
            </g>
        </g>
    </g>
</svg>