<svg width="14" height="14" viewBox="0 0 14 14" fill="none" xmlns="http://www.w3.org/2000/svg">
<path d="M7 0C3.14026 0 0 3.13996 0 7C0 10.86 3.14026 14 7 14C10.8597 14 14 10.86 14 7C14 3.13996 10.8597 0 7 0ZM10.8759 3.25013L7.8047 6.57696C7.87165 6.70387 7.91304 6.84661 7.91304 7C7.91304 7.2313 7.82417 7.44039 7.68235 7.60139L8.78774 9.59152C8.86961 9.73822 8.81635 9.92356 8.66965 10.0051C8.62278 10.0313 8.57196 10.0435 8.52204 10.0435C8.41491 10.0435 8.31143 9.98687 8.25574 9.88674L7.15065 7.89783C7.10135 7.90604 7.05174 7.91304 7 7.91304C6.4957 7.91304 6.08696 7.5043 6.08696 7C6.08696 6.4957 6.4957 6.08696 7 6.08696C7.12783 6.08696 7.24957 6.11374 7.36004 6.16122L10.4285 2.83683C10.5426 2.71387 10.735 2.70565 10.8585 2.81978C10.9821 2.93391 10.9897 3.12626 10.8759 3.25013Z" fill="#009FE3"/>
</svg>
