<?xml version="1.0" encoding="UTF-8"?>
<svg width="89px" height="89px" viewBox="0 0 89 89" version="1.1" xmlns="http://www.w3.org/2000/svg" xmlns:xlink="http://www.w3.org/1999/xlink">
    <title>EC966BA7-BB3F-47E8-90BB-CD7EC07F9BC8</title>
    <g id="V2" stroke="none" stroke-width="1" fill="none" fill-rule="evenodd">
        <g id="Sectors" transform="translate(-1473.000000, -2219.000000)">
            <g id="turn-key" transform="translate(1473.000000, 2219.000000)">
                <circle id="Oval-Copy-3" stroke="#FFFFFF" fill="#FFFFFF" cx="44.5" cy="44.5" r="44"></circle>
                <g id="icons8-checkmark" transform="translate(28.000000, 30.000000)" fill="#EF6F23" fill-rule="nonzero">
                    <path d="M30.78125,0.520833333 C30.227865,0.540365 29.7200525,0.833333333 29.4270833,1.30208333 L13.75,25.2864583 L3.59375,16.5104167 C3.1575525,16.0579425 2.503255,15.8886717 1.90104167,16.0774742 C1.30208333,16.2630208 0.85612,16.7708333 0.751953333,17.3893233 C0.647786667,18.0110675 0.8984375,18.6360675 1.40625,19.0104167 L13.0208333,29.0625 C13.3854167,29.371745 13.8671875,29.5084633 14.3391925,29.4401042 C14.8144533,29.36849 15.234375,29.0983075 15.4947917,28.6979167 L32.2395833,3.125 C32.5976567,2.60091167 32.6269533,1.92382833 32.3177083,1.3704425 C32.0084633,0.8203125 31.4127608,0.491536667 30.78125,0.520833333 Z" id="Path"></path>
                </g>
            </g>
        </g>
    </g>
</svg>