<?xml version="1.0" encoding="UTF-8"?>
<svg width="15px" height="15px" viewBox="0 0 15 15" version="1.1" xmlns="http://www.w3.org/2000/svg" xmlns:xlink="http://www.w3.org/1999/xlink">
    <title>6B24DA13-B4B8-4648-868D-DD15135CD973</title>
    <g id="V2" stroke="none" stroke-width="1" fill="none" fill-rule="evenodd">
        <g id="Home-V2" transform="translate(-1505.000000, -16.000000)" fill="#FFFFFF" fill-rule="nonzero">
            <g id="twitter" transform="translate(1505.000000, 16.000000)">
                <path d="M13.3333333,0 L1.66666667,0 C0.745833333,0 0,0.745833333 0,1.66666667 L0,13.3333333 C0,14.2541667 0.745833333,15 1.66666667,15 L13.3333333,15 C14.2541667,15 15,14.2541667 15,13.3333333 L15,1.66666667 C15,0.745833333 14.2541667,0 13.3333333,0 Z M11.7083333,5.42833333 C11.7083333,5.5 11.7083333,5.57083333 11.7083333,5.71416667 C11.7083333,8.42833333 9.63666667,11.5716667 5.85083333,11.5716667 C4.70833333,11.5716667 3.63666667,11.2141667 2.70833333,10.6433333 C2.85083333,10.6433333 3.06583333,10.6433333 3.20833333,10.6433333 C4.13666667,10.6433333 5.06583333,10.2858333 5.78,9.78583333 C4.85166667,9.78583333 4.1375,9.14333333 3.85166667,8.3575 C3.99416667,8.3575 4.1375,8.42916667 4.20916667,8.42916667 C4.42333333,8.42916667 4.56666667,8.42916667 4.78083333,8.3575 C3.8525,8.14333333 3.13833333,7.3575 3.13833333,6.3575 C3.42416667,6.5 3.71,6.57166667 4.06666667,6.64333333 C3.495,6.14333333 3.13833333,5.57166667 3.13833333,4.8575 C3.13833333,4.5 3.21,4.14333333 3.42416667,3.8575 C4.42416667,5.07166667 5.92416667,5.92916667 7.63833333,6 C7.63833333,5.8575 7.56666667,5.71416667 7.56666667,5.5 C7.56666667,4.3575 8.495,3.42833333 9.63833333,3.42833333 C10.21,3.42833333 10.7808333,3.6425 11.1383333,4.07083333 C11.6383333,3.99916667 12.0666667,3.785 12.4241667,3.57083333 C12.2816667,4.07083333 11.9241667,4.42833333 11.4958333,4.71333333 C11.9241667,4.64166667 12.2816667,4.57083333 12.71,4.35583333 C12.4225,4.78583333 12.0658333,5.1425 11.7083333,5.42833333 Z" id="Shape"></path>
            </g>
        </g>
    </g>
</svg>