<?xml version="1.0" encoding="UTF-8"?>
<svg width="22px" height="22px" viewBox="0 0 22 22" version="1.1" xmlns="http://www.w3.org/2000/svg" xmlns:xlink="http://www.w3.org/1999/xlink">
    <title>8F13900D-2005-489C-8CBC-6170648AEEF5</title>
    <g id="V2" stroke="none" stroke-width="1" fill="none" fill-rule="evenodd">
        <g id="Project" transform="translate(-1233.000000, -1809.000000)" fill="#EF6F23" fill-rule="nonzero">
            <g id="value" transform="translate(1233.000000, 1809.000000)">
                <path d="M11,0 C4.92608696,0 0,4.92608696 0,11 C0,17.073913 4.92608696,22 11,22 C17.073913,22 22,17.073913 22,11 C22,4.92608696 17.073913,0 11,0 Z M10.5217391,3.82608696 L11.4782609,3.82608696 L11.4782609,5.16559091 C13.773913,5.26124309 14.7302478,7.22192613 14.6345956,8.56105657 L13.6304348,8.56105657 C13.5826087,7.79583917 13.3434783,6.16956522 11.4782609,5.97826087 L11.4782609,10.6170178 C13.1521739,10.9996265 14.9213656,11.5257134 14.9213656,13.7257134 C14.9213656,14.2039743 14.6826087,16.5952787 11.4782609,16.8344091 L11.4782609,18.173913 L10.5217391,18.173913 L10.5217391,16.8344091 C9.23043478,16.6909308 7.17428657,16.2612431 7.07863439,13.0568953 L8.13043478,13.0568953 C8.03478261,15.3047213 9.70869565,15.8782609 10.5217391,16.0217391 L10.5217391,11.3344091 C8.94347826,10.9518004 7.41304348,10.3778873 7.41304348,8.22571343 C7.41304348,7.31701778 7.89130435,5.30906917 10.5217391,5.16559091 L10.5217391,3.82608696 Z M10.5217391,5.97826087 C8.70434783,6.12173913 8.36956522,7.3175783 8.36956522,8.32192613 C8.36956522,9.61323048 9.32608696,10.0431047 10.5217391,10.3778873 L10.5217391,5.97826087 Z M11.4782609,11.5735395 L11.4782609,16.0217391 C13.8695652,15.8304348 13.9648439,14.1085087 13.9648439,13.6780739 C13.9648439,12.2911173 12.8173913,11.9083221 11.4782609,11.5735395 Z" id="Shape"></path>
            </g>
        </g>
    </g>
</svg>