<?xml version="1.0" encoding="UTF-8"?>
<svg width="18px" height="25px" viewBox="0 0 18 25" version="1.1" xmlns="http://www.w3.org/2000/svg" xmlns:xlink="http://www.w3.org/1999/xlink">
    <title>A8326518-6862-4751-9EF0-49B3BB06CEE4</title>
    <g id="V2" stroke="none" stroke-width="1" fill="none" fill-rule="evenodd">
        <g id="Home-V2" transform="translate(-554.000000, -3708.000000)" fill="#EF6F23" fill-rule="nonzero">
            <path d="M563.393213,3708.17351 C563.199601,3707.94216 562.800399,3707.94216 562.604791,3708.17351 C562.253493,3708.59307 554,3718.48406 554,3724.1579 C554,3729.0338 558.035928,3733 563,3733 C567.964072,3733 572,3729.0338 572,3724.15986 C572,3718.48406 563.746507,3708.59307 563.393213,3708.17351 Z M563.101797,3714.30024 C563.053892,3714.36102 558.269461,3720.4701 558.269461,3724.06184 C558.269461,3728.59071 562.309381,3729.21221 562.481038,3729.23574 C562.760479,3729.27495 562.954092,3729.52982 562.914172,3729.8043 C562.878244,3730.05525 562.660679,3730.23562 562.409182,3730.23562 C562.38523,3730.23562 562.361277,3730.23366 562.335329,3730.22974 C562.285429,3730.2219 557.247505,3729.44944 557.247505,3724.06184 C557.247505,3720.12897 562.087824,3713.94734 562.293413,3713.68463 C562.467066,3713.46504 562.788423,3713.42583 563.00998,3713.5964 C563.233533,3713.76697 563.275449,3714.08066 563.101797,3714.30024 Z" id="water"></path>
        </g>
    </g>
</svg>