<svg width="282" height="59" viewBox="0 0 282 59" fill="none" xmlns="http://www.w3.org/2000/svg">
<path d="M30.5052 24.674C31.2736 24.674 32.1188 24.9046 32.8104 25.2888L34.2703 22.7531C33.1178 22.0615 31.8115 21.7542 30.5052 21.7542C26.3559 21.7542 22.975 25.1351 22.975 29.2076C22.975 33.3569 26.3559 36.7378 30.5052 36.7378C31.8115 36.7378 33.1178 36.4304 34.2703 35.7389L32.8104 33.2032C32.1188 33.5874 31.3505 33.8179 30.5821 33.8179C28.0464 33.8179 26.0485 31.7433 26.0485 29.2844C25.9717 26.7487 27.9695 24.674 30.5052 24.674Z" fill="#009FE3"/>
<path d="M48.5625 24.674C49.3309 24.674 50.1761 24.9046 50.8676 25.2888L52.3276 22.7531C51.175 22.0615 49.8687 21.7542 48.5625 21.7542C44.4132 21.7542 41.0322 25.1351 41.0322 29.2076C41.0322 33.3569 44.4132 36.7378 48.5625 36.7378C49.8687 36.7378 51.175 36.4304 52.3276 35.7389L50.8676 33.2032C50.1761 33.5874 49.4077 33.8179 48.6393 33.8179C46.1036 33.8179 44.1058 31.7433 44.1058 29.2844C44.029 26.7487 46.1036 24.674 48.5625 24.674Z" fill="#009FE3"/>
<path d="M51.3287 16.0681C50.0224 16.0681 48.7161 16.3755 47.5635 17.067L49.0235 19.6027C49.715 19.2185 50.4834 18.988 51.2518 18.988C53.7875 18.988 55.7853 21.0627 55.7853 23.5215C55.7853 26.0572 53.7107 28.055 51.2518 28.055C50.4834 28.055 49.6382 27.8245 48.9466 27.4403L47.4867 29.976C48.6393 30.6676 49.9455 30.9749 51.2518 30.9749C55.4011 30.9749 58.7821 27.594 58.7821 23.4447C58.8589 19.449 55.478 16.0681 51.3287 16.0681Z" fill="#009FE3"/>
<path d="M36.8059 41.8861C37.8817 41.2714 39.1111 41.1177 40.2637 41.4251C41.4163 41.7324 42.4152 42.5008 43.0299 43.5766C43.4141 44.2681 43.6446 45.0365 43.6446 45.8818H46.5645C46.5645 44.5755 46.2572 43.2692 45.5656 42.1166C44.5667 40.3493 42.9531 39.1199 41.0321 38.6589C39.1111 38.121 37.0365 38.4283 35.346 39.4273C33.5787 40.4262 32.3493 42.0398 31.8882 43.9608C31.3504 45.8818 31.6577 47.9564 32.6566 49.6469C33.2713 50.7995 34.2703 51.7215 35.346 52.3362L36.8059 49.8006C36.1144 49.4164 35.5765 48.8016 35.1923 48.1101C34.5776 47.0343 34.4239 45.8049 34.7313 44.6523C34.9618 43.4997 35.7302 42.5008 36.8059 41.8861Z" fill="#009FE3"/>
<path d="M49.1003 38.8894L47.6404 41.5019C48.3319 41.8861 48.8698 42.5008 49.254 43.1156C50.4834 45.2671 49.7919 48.1101 47.5635 49.3395C46.4878 49.9543 45.2583 50.1079 44.1057 49.8006C42.9532 49.4932 41.9542 48.7248 41.3395 47.6491C40.9553 46.9575 40.7248 46.1891 40.7248 45.3439H37.8049C37.8049 46.6502 38.1123 47.9564 38.8038 49.109C40.1869 51.491 42.7226 52.8741 45.3352 52.8741C46.6414 52.8741 47.8709 52.5668 49.1003 51.8752C52.7117 49.8006 53.9412 45.1902 51.8665 41.6556C51.175 40.503 50.2529 39.581 49.1003 38.8894Z" fill="#009FE3"/>
<path d="M22.1297 41.963C23.2054 42.5777 23.897 43.5766 24.2812 44.7292C24.5885 45.8818 24.4349 47.1112 23.8201 48.187C23.4359 48.8785 22.8212 49.4932 22.1297 49.8774L23.5896 52.4131C24.7422 51.7216 25.6643 50.7995 26.3558 49.6469C27.3547 47.8796 27.5853 45.8818 27.1242 43.9608C26.5864 42.0398 25.3569 40.4262 23.5896 39.4273C19.9782 37.3526 15.4447 38.5821 13.37 42.1935C12.7553 43.3461 12.3711 44.5755 12.3711 45.8818H15.291C15.291 45.1134 15.5215 44.2682 15.9057 43.5766C17.212 41.4251 19.9782 40.7336 22.1297 41.963Z" fill="#009FE3"/>
<path d="M27.3547 53.412C26.74 54.4878 25.7411 55.2562 24.5885 55.5635C23.4359 55.8709 22.2065 55.7172 21.1307 55.1025C20.055 54.4878 19.3634 53.4889 18.9792 52.3363C18.6719 51.1837 18.8256 49.9543 19.4403 48.8785C19.8245 48.1869 20.4392 47.5722 21.1307 47.188L19.6708 44.6523C18.5182 45.2671 17.5961 46.266 16.9046 47.4186C14.8299 51.03 16.0594 55.6404 19.6708 57.6382C20.8234 58.3297 22.1297 58.6371 23.4359 58.6371C24.0506 58.6371 24.7422 58.5602 25.3569 58.4066C27.2779 57.8687 28.8915 56.6393 29.8904 54.872C30.5051 53.7194 30.8893 52.4131 30.8893 51.1837H27.9694C27.9694 51.9521 27.7389 52.7205 27.3547 53.412Z" fill="#009FE3"/>
<path d="M10.2196 33.8948C9.4512 33.8948 8.60597 33.6642 7.91441 33.28L6.45447 35.8157C7.60706 36.5073 8.91332 36.8146 10.2196 36.8146C12.2174 36.8146 14.1384 36.0462 15.5215 34.5863C16.9814 33.2032 17.7498 31.2822 17.7498 29.2844C17.7498 25.1351 14.3689 21.7542 10.2196 21.7542C8.91332 21.7542 7.60706 22.0615 6.45447 22.7531L7.91441 25.3656C8.60597 24.9814 9.37436 24.7509 10.1428 24.7509C12.6784 24.7509 14.6763 26.8255 14.6763 29.2844C14.6763 30.5138 14.2152 31.6664 13.37 32.5116C12.6016 33.4337 11.449 33.8948 10.2196 33.8948Z" fill="#009FE3"/>
<path d="M7.53024 39.504C4.99455 39.504 2.99673 37.4293 2.99673 34.9705C2.99673 32.4348 5.07139 30.437 7.53024 30.437C8.37548 30.437 9.14387 30.6675 9.83542 31.0517L11.2954 28.516C10.1428 27.8244 8.83651 27.5171 7.53024 27.5171C3.38093 27.5171 0 30.898 0 34.9705C0 39.1198 3.38093 42.5007 7.53024 42.5007C8.83651 42.5007 10.1428 42.1934 11.2954 41.5018L9.83542 38.9661C9.06703 39.3503 8.29864 39.504 7.53024 39.504Z" fill="#009FE3"/>
<path d="M22.0529 16.606C20.9771 17.2207 19.7477 17.3744 18.5951 17.067C17.4425 16.7596 16.4436 15.9912 15.8289 14.9155C15.4447 14.2239 15.2142 13.4556 15.2142 12.6103H12.2943C12.2943 13.9166 12.6017 15.2229 13.2932 16.3754C14.2921 18.1427 15.9058 19.3722 17.8267 19.8332C18.4415 19.9869 19.133 20.1406 19.8246 20.1406C21.1308 20.1406 22.4371 19.7564 23.5897 19.1417C27.2011 17.067 28.4306 12.4566 26.3559 8.92204C25.7412 7.76945 24.7423 6.84738 23.6665 6.23267L22.2066 8.76836C22.8981 9.15256 23.436 9.76727 23.897 10.4588C24.9728 12.6103 24.2812 15.3765 22.0529 16.606Z" fill="#009FE3"/>
<path d="M9.75857 19.6795L11.2185 17.1438C10.527 16.7597 9.98908 16.1449 9.52805 15.4534C8.29862 13.3019 8.99017 10.4588 11.2185 9.22941C13.37 7.99998 16.2131 8.76837 17.4425 10.9199C17.8267 11.6114 18.0572 12.3798 18.0572 13.225H20.9771C20.9771 11.9188 20.6697 10.6125 19.9782 9.45992C17.9035 5.92532 13.2932 4.69589 9.75857 6.69371C6.14712 8.76837 4.91769 13.3787 6.99235 16.9133C7.68391 18.0659 8.60598 18.988 9.75857 19.6795Z" fill="#009FE3"/>
<path d="M36.7291 16.6061C35.6533 15.9914 34.885 14.9925 34.5776 13.8399C34.2702 12.6873 34.4239 11.4578 35.0386 10.3821C35.4228 9.69055 36.0375 9.07583 36.7291 8.69164L35.2692 6.0791C34.1166 6.77065 33.1945 7.69273 32.5029 8.84531C31.504 10.5358 31.1967 12.6104 31.7345 14.5314C32.2724 16.4524 33.5019 18.066 35.2692 19.0649C36.4217 19.7565 37.728 20.0638 39.0343 20.0638C41.6468 20.0638 44.1825 18.6807 45.5656 16.2987C46.2572 15.1461 46.5645 13.9167 46.5645 12.6104H43.6446C43.6446 13.3788 43.4141 14.2241 43.0299 14.9156C41.6468 17.0671 38.8806 17.8355 36.7291 16.6061Z" fill="#009FE3"/>
<path d="M31.5041 5.15693C32.7335 3.00543 35.5766 2.23704 37.7281 3.54331C38.8038 4.15802 39.5722 5.08009 39.8796 6.30952C40.1869 7.46211 40.0332 8.69153 39.4185 9.76728C39.0343 10.4588 38.4196 11.0736 37.7281 11.4577L39.188 13.9934C40.3406 13.3787 41.2627 12.3798 41.9542 11.2272C42.9531 9.45993 43.2605 7.46211 42.7226 5.54113C42.1847 3.62015 40.9553 2.00652 39.188 1.00761C35.5766 -1.06705 31.0431 0.16238 28.9684 3.77382C28.3537 4.92641 27.9695 6.23268 27.9695 7.46211H30.8894C30.8894 6.61688 31.1199 5.84848 31.5041 5.15693Z" fill="#009FE3"/>
<path d="M30.5052 24.674C31.2736 24.674 32.1188 24.9046 32.8104 25.2888L34.2703 22.7531C33.1178 22.0615 31.8115 21.7542 30.5052 21.7542C26.3559 21.7542 22.975 25.1351 22.975 29.2076C22.975 33.3569 26.3559 36.7378 30.5052 36.7378C31.8115 36.7378 33.1178 36.4304 34.2703 35.7389L32.8104 33.2032C32.1188 33.5874 31.3505 33.8179 30.5821 33.8179C28.0464 33.8179 26.0485 31.7433 26.0485 29.2844C25.9717 26.7487 27.9695 24.674 30.5052 24.674Z" fill="#009FE3"/>
<path d="M48.5625 24.674C49.3309 24.674 50.1761 24.9046 50.8676 25.2888L52.3276 22.7531C51.175 22.0615 49.8687 21.7542 48.5625 21.7542C44.4132 21.7542 41.0322 25.1351 41.0322 29.2076C41.0322 33.3569 44.4132 36.7378 48.5625 36.7378C49.8687 36.7378 51.175 36.4304 52.3276 35.7389L50.8676 33.2032C50.1761 33.5874 49.4077 33.8179 48.6393 33.8179C46.1036 33.8179 44.1058 31.7433 44.1058 29.2844C44.029 26.7487 46.1036 24.674 48.5625 24.674Z" fill="#009FE3"/>
<path d="M51.3287 16.0681C50.0224 16.0681 48.7161 16.3755 47.5635 17.067L49.0235 19.6027C49.715 19.2185 50.4834 18.988 51.2518 18.988C53.7875 18.988 55.7853 21.0627 55.7853 23.5215C55.7853 26.0572 53.7107 28.055 51.2518 28.055C50.4834 28.055 49.6382 27.8245 48.9466 27.4403L47.4867 29.976C48.6393 30.6676 49.9455 30.9749 51.2518 30.9749C55.4011 30.9749 58.7821 27.594 58.7821 23.4447C58.8589 19.449 55.478 16.0681 51.3287 16.0681Z" fill="#009FE3"/>
<path d="M36.8059 41.8861C37.8817 41.2714 39.1111 41.1177 40.2637 41.4251C41.4163 41.7324 42.4152 42.5008 43.0299 43.5766C43.4141 44.2681 43.6446 45.0365 43.6446 45.8818H46.5645C46.5645 44.5755 46.2572 43.2692 45.5656 42.1166C44.5667 40.3493 42.9531 39.1199 41.0321 38.6589C39.1111 38.121 37.0365 38.4283 35.346 39.4273C33.5787 40.4262 32.3493 42.0398 31.8882 43.9608C31.3504 45.8818 31.6577 47.9564 32.6566 49.6469C33.2713 50.7995 34.2703 51.7215 35.346 52.3362L36.8059 49.8006C36.1144 49.4164 35.5765 48.8016 35.1923 48.1101C34.5776 47.0343 34.4239 45.8049 34.7313 44.6523C34.9618 43.4997 35.7302 42.5008 36.8059 41.8861Z" fill="#009FE3"/>
<path d="M49.1003 38.8894L47.6404 41.5019C48.3319 41.8861 48.8698 42.5008 49.254 43.1156C50.4834 45.2671 49.7919 48.1101 47.5635 49.3395C46.4878 49.9543 45.2583 50.1079 44.1057 49.8006C42.9532 49.4932 41.9542 48.7248 41.3395 47.6491C40.9553 46.9575 40.7248 46.1891 40.7248 45.3439H37.8049C37.8049 46.6502 38.1123 47.9564 38.8038 49.109C40.1869 51.491 42.7226 52.8741 45.3352 52.8741C46.6414 52.8741 47.8709 52.5668 49.1003 51.8752C52.7117 49.8006 53.9412 45.1902 51.8665 41.6556C51.175 40.503 50.2529 39.581 49.1003 38.8894Z" fill="#009FE3"/>
<path d="M22.1297 41.963C23.2054 42.5777 23.897 43.5766 24.2812 44.7292C24.5885 45.8818 24.4349 47.1112 23.8201 48.187C23.4359 48.8785 22.8212 49.4932 22.1297 49.8774L23.5896 52.4131C24.7422 51.7216 25.6643 50.7995 26.3558 49.6469C27.3547 47.8796 27.5853 45.8818 27.1242 43.9608C26.5864 42.0398 25.3569 40.4262 23.5896 39.4273C19.9782 37.3526 15.4447 38.5821 13.37 42.1935C12.7553 43.3461 12.3711 44.5755 12.3711 45.8818H15.291C15.291 45.1134 15.5215 44.2682 15.9057 43.5766C17.212 41.4251 19.9782 40.7336 22.1297 41.963Z" fill="#009FE3"/>
<path d="M27.3547 53.412C26.74 54.4878 25.7411 55.2562 24.5885 55.5635C23.4359 55.8709 22.2065 55.7172 21.1307 55.1025C20.055 54.4878 19.3634 53.4889 18.9792 52.3363C18.6719 51.1837 18.8256 49.9543 19.4403 48.8785C19.8245 48.1869 20.4392 47.5722 21.1307 47.188L19.6708 44.6523C18.5182 45.2671 17.5961 46.266 16.9046 47.4186C14.8299 51.03 16.0594 55.6404 19.6708 57.6382C20.8234 58.3297 22.1297 58.6371 23.4359 58.6371C24.0506 58.6371 24.7422 58.5602 25.3569 58.4066C27.2779 57.8687 28.8915 56.6393 29.8904 54.872C30.5051 53.7194 30.8893 52.4131 30.8893 51.1837H27.9694C27.9694 51.9521 27.7389 52.7205 27.3547 53.412Z" fill="#009FE3"/>
<path d="M10.2196 33.8948C9.4512 33.8948 8.60597 33.6642 7.91441 33.28L6.45447 35.8157C7.60706 36.5073 8.91332 36.8146 10.2196 36.8146C12.2174 36.8146 14.1384 36.0462 15.5215 34.5863C16.9814 33.2032 17.7498 31.2822 17.7498 29.2844C17.7498 25.1351 14.3689 21.7542 10.2196 21.7542C8.91332 21.7542 7.60706 22.0615 6.45447 22.7531L7.91441 25.3656C8.60597 24.9814 9.37436 24.7509 10.1428 24.7509C12.6784 24.7509 14.6763 26.8255 14.6763 29.2844C14.6763 30.5138 14.2152 31.6664 13.37 32.5116C12.6016 33.4337 11.449 33.8948 10.2196 33.8948Z" fill="#009FE3"/>
<path d="M7.53024 39.504C4.99455 39.504 2.99673 37.4293 2.99673 34.9705C2.99673 32.4348 5.07139 30.437 7.53024 30.437C8.37548 30.437 9.14387 30.6675 9.83542 31.0517L11.2954 28.516C10.1428 27.8244 8.83651 27.5171 7.53024 27.5171C3.38093 27.5171 0 30.898 0 34.9705C0 39.1198 3.38093 42.5007 7.53024 42.5007C8.83651 42.5007 10.1428 42.1934 11.2954 41.5018L9.83542 38.9661C9.06703 39.3503 8.29864 39.504 7.53024 39.504Z" fill="#009FE3"/>
<path d="M22.0529 16.606C20.9771 17.2207 19.7477 17.3744 18.5951 17.067C17.4425 16.7596 16.4436 15.9912 15.8289 14.9155C15.4447 14.2239 15.2142 13.4556 15.2142 12.6103H12.2943C12.2943 13.9166 12.6017 15.2229 13.2932 16.3754C14.2921 18.1427 15.9058 19.3722 17.8267 19.8332C18.4415 19.9869 19.133 20.1406 19.8246 20.1406C21.1308 20.1406 22.4371 19.7564 23.5897 19.1417C27.2011 17.067 28.4306 12.4566 26.3559 8.92204C25.7412 7.76945 24.7423 6.84738 23.6665 6.23267L22.2066 8.76836C22.8981 9.15256 23.436 9.76727 23.897 10.4588C24.9728 12.6103 24.2812 15.3765 22.0529 16.606Z" fill="#009FE3"/>
<path d="M9.75857 19.6795L11.2185 17.1438C10.527 16.7597 9.98908 16.1449 9.52805 15.4534C8.29862 13.3019 8.99017 10.4588 11.2185 9.22941C13.37 7.99998 16.2131 8.76837 17.4425 10.9199C17.8267 11.6114 18.0572 12.3798 18.0572 13.225H20.9771C20.9771 11.9188 20.6697 10.6125 19.9782 9.45992C17.9035 5.92532 13.2932 4.69589 9.75857 6.69371C6.14712 8.76837 4.91769 13.3787 6.99235 16.9133C7.68391 18.0659 8.60598 18.988 9.75857 19.6795Z" fill="#009FE3"/>
<path d="M36.7291 16.6061C35.6533 15.9914 34.885 14.9925 34.5776 13.8399C34.2702 12.6873 34.4239 11.4578 35.0386 10.3821C35.4228 9.69055 36.0375 9.07583 36.7291 8.69164L35.2692 6.0791C34.1166 6.77065 33.1945 7.69273 32.5029 8.84531C31.504 10.5358 31.1967 12.6104 31.7345 14.5314C32.2724 16.4524 33.5019 18.066 35.2692 19.0649C36.4217 19.7565 37.728 20.0638 39.0343 20.0638C41.6468 20.0638 44.1825 18.6807 45.5656 16.2987C46.2572 15.1461 46.5645 13.9167 46.5645 12.6104H43.6446C43.6446 13.3788 43.4141 14.2241 43.0299 14.9156C41.6468 17.0671 38.8806 17.8355 36.7291 16.6061Z" fill="#009FE3"/>
<path d="M31.5041 5.15693C32.7335 3.00543 35.5766 2.23704 37.7281 3.54331C38.8038 4.15802 39.5722 5.08009 39.8796 6.30952C40.1869 7.46211 40.0332 8.69153 39.4185 9.76728C39.0343 10.4588 38.4196 11.0736 37.7281 11.4577L39.188 13.9934C40.3406 13.3787 41.2627 12.3798 41.9542 11.2272C42.9531 9.45993 43.2605 7.46211 42.7226 5.54113C42.1847 3.62015 40.9553 2.00652 39.188 1.00761C35.5766 -1.06705 31.0431 0.16238 28.9684 3.77382C28.3537 4.92641 27.9695 6.23268 27.9695 7.46211H30.8894C30.8894 6.61688 31.1199 5.84848 31.5041 5.15693Z" fill="#009FE3"/>
<path d="M209.156 47.1882H172.735V51.9523H209.156V47.1882Z" fill="#006937"/>
<path d="M282 47.188H245.578V51.952H282V47.188Z" fill="#F5333F"/>
<path d="M245.578 47.188H209.156V51.952H245.578V47.188Z" fill="#F4F4F4"/>
<path d="M81.3728 39.7346H80.6044V30.8213H81.3728V39.7346Z" fill="#021D49"/>
<path d="M89.5946 31.4359H86.4442V39.6577H85.6758V31.4359H82.5254V30.7444H89.5178V31.4359H89.5946Z" fill="#021D49"/>
<path d="M97.3553 39.7346H96.5101L95.2038 36.2H91.5155L90.1324 39.7346H89.364L92.9755 30.8213H93.9744L97.3553 39.7346ZM95.0501 35.5853L93.5133 31.436L91.8229 35.5853H95.0501Z" fill="#021D49"/>
<path d="M103.349 39.7346H98.7384V30.8213H99.5068V39.0431H103.349V39.7346Z" fill="#021D49"/>
<path d="M105.347 39.7346H104.578V30.8213H105.347V39.7346Z" fill="#021D49"/>
<path d="M114.644 39.7346H113.799L112.493 36.2H108.804L107.421 39.7346H106.653L110.264 30.8213H111.263L114.644 39.7346ZM112.339 35.5853L110.802 31.436L109.112 35.5853H112.339Z" fill="#021D49"/>
<path d="M122.789 39.7346H121.406L116.719 31.2823L116.796 32.1276V39.7346H116.027V30.8213H117.257L122.098 39.3504V38.1979V30.8213H122.866V39.7346H122.789Z" fill="#021D49"/>
<path d="M135.391 39.5041C134.853 39.7346 134.008 39.8883 132.855 39.8883C131.472 39.8883 130.319 39.4272 129.474 38.582C128.706 37.7368 128.322 36.661 128.322 35.3547C128.322 33.9716 128.706 32.819 129.551 31.9738C130.319 31.1286 131.472 30.7444 132.855 30.7444C133.7 30.7444 134.546 30.8981 135.391 31.1286L135.16 31.7433C134.392 31.5128 133.7 31.3591 132.855 31.3591C131.779 31.3591 130.934 31.6665 130.243 32.2043C129.474 32.8959 129.09 33.818 129.09 35.1242C129.09 36.5073 129.474 37.5062 130.319 38.1978C131.011 38.8125 131.933 39.1199 133.086 39.1199C133.854 39.1199 134.546 39.043 135.16 38.8125L135.391 39.5041Z" fill="#021D49"/>
<path d="M143.536 39.7346H142.767V35.5853H137.619V39.7346H136.851V30.8213H137.619V34.9706H142.767V30.8213H143.536V39.7346Z" fill="#021D49"/>
<path d="M152.833 39.7346H151.988L150.682 36.2H146.993L145.61 39.7346H144.842L148.453 30.8213H149.452L152.833 39.7346ZM150.528 35.5853L148.991 31.436L147.301 35.5853H150.528Z" fill="#021D49"/>
<path d="M163.053 39.7346H162.284V31.3592L159.057 39.7346H157.828L154.908 31.3592L154.985 32.5118V39.6578H154.216V30.8213H155.446L158.519 39.4273L161.9 30.8213H163.13V39.7346H163.053Z" fill="#021D49"/>
<path d="M171.505 37.2758C171.505 38.9662 170.506 39.7346 168.509 39.7346H165.896V30.8213H168.201C169.123 30.8213 169.815 31.0518 170.353 31.436C170.814 31.8202 170.967 32.2812 170.967 32.9728C170.967 33.5107 170.814 33.9717 170.583 34.2791C170.43 34.5096 170.199 34.7401 169.968 34.8938C169.892 34.9706 169.738 34.9706 169.661 34.9706C169.815 34.9706 169.968 35.0474 170.122 35.0474C170.506 35.2011 170.814 35.3548 171.044 35.6622C171.352 36.1232 171.505 36.6611 171.505 37.2758ZM170.122 33.1265C170.122 32.5118 169.892 32.0507 169.507 31.7434C169.2 31.5128 168.585 31.3592 167.817 31.3592H166.588V34.7401H168.047C168.816 34.7401 169.277 34.5864 169.661 34.2791C169.968 34.1254 170.122 33.6643 170.122 33.1265ZM170.737 37.2758C170.737 36.5074 170.506 36.0464 169.968 35.739C169.584 35.5085 168.816 35.4316 167.817 35.4316H166.588V39.1199H168.278C169.046 39.1199 169.584 39.0431 169.968 38.8126C170.506 38.5052 170.737 37.9673 170.737 37.2758Z" fill="#021D49"/>
<path d="M178.651 39.7346H173.657V30.8213H178.421V31.436H174.425V34.9706H178.19V35.6622H174.425V39.1199H178.728V39.7346H178.651Z" fill="#021D49"/>
<path d="M187.488 39.1968L187.334 39.8115C187.104 39.8115 186.796 39.7346 186.566 39.6578C186.105 39.4273 185.72 39.1199 185.413 38.6589L183.569 35.9695C183.338 36.0464 183.031 36.0464 182.647 36.0464H181.341V39.7346H180.572V30.8213H183.338C184.184 30.8213 184.875 31.0518 185.336 31.436C185.874 31.897 186.105 32.5118 186.105 33.357C186.105 34.5864 185.49 35.4316 184.337 35.8158L185.874 38.0442C186.258 38.5821 186.796 39.0431 187.488 39.1968ZM185.259 33.4338C185.259 32.7423 185.029 32.2044 184.645 31.897C184.261 31.5897 183.723 31.436 183.031 31.436H181.341V35.3548H182.801C184.414 35.3548 185.259 34.7401 185.259 33.4338Z" fill="#021D49"/>
<path d="M200.474 35.2779C200.474 36.661 200.089 37.7368 199.244 38.582C198.399 39.4272 197.323 39.8883 195.94 39.8883C194.634 39.8883 193.558 39.4272 192.79 38.582C192.021 37.7368 191.637 36.661 191.637 35.2779C191.637 33.8948 192.021 32.819 192.867 31.9738C193.712 31.1286 194.788 30.7444 196.171 30.7444C197.554 30.7444 198.553 31.2054 199.321 32.0507C200.089 32.819 200.474 33.8948 200.474 35.2779ZM199.705 35.2779C199.705 34.1253 199.398 33.2032 198.783 32.5117C198.092 31.7433 197.246 31.3591 196.094 31.3591C194.941 31.3591 194.019 31.7433 193.328 32.5117C192.713 33.2032 192.405 34.1253 192.405 35.2779C192.405 36.4305 192.713 37.3526 193.328 38.0441C194.019 38.8125 194.864 39.2735 196.017 39.2735C197.246 39.2735 198.168 38.8893 198.783 38.121C199.398 37.3526 199.705 36.4305 199.705 35.2779Z" fill="#021D49"/>
<path d="M207.466 31.436H203.24V35.2011H207.235V35.8927H203.24V39.8115H202.471V30.8213H207.466V31.436Z" fill="#021D49"/>
<path d="M218.915 39.5041C218.377 39.7346 217.532 39.8883 216.379 39.8883C214.996 39.8883 213.844 39.4272 212.998 38.582C212.23 37.7368 211.846 36.661 211.846 35.3547C211.846 33.9716 212.23 32.819 213.075 31.9738C213.844 31.1286 214.996 30.7444 216.379 30.7444C217.225 30.7444 218.07 30.8981 218.915 31.1286L218.685 31.7433C217.916 31.5128 217.225 31.3591 216.379 31.3591C215.304 31.3591 214.458 31.6665 213.767 32.2043C212.998 32.8959 212.614 33.818 212.614 35.1242C212.614 36.5073 212.998 37.5062 213.844 38.1978C214.535 38.8125 215.457 39.1199 216.61 39.1199C217.378 39.1199 218.07 39.043 218.685 38.8125L218.915 39.5041Z" fill="#021D49"/>
<path d="M228.366 35.2779C228.366 36.661 227.982 37.7368 227.137 38.582C226.292 39.4272 225.216 39.8883 223.833 39.8883C222.526 39.8883 221.451 39.4272 220.682 38.582C219.914 37.7368 219.53 36.661 219.53 35.2779C219.53 33.8948 219.914 32.819 220.759 31.9738C221.604 31.1286 222.68 30.7444 224.063 30.7444C225.446 30.7444 226.445 31.2054 227.214 32.0507C227.982 32.819 228.366 33.8948 228.366 35.2779ZM227.598 35.2779C227.598 34.1253 227.29 33.2032 226.676 32.5117C225.984 31.7433 225.139 31.3591 223.986 31.3591C222.834 31.3591 221.912 31.7433 221.22 32.5117C220.605 33.2032 220.298 34.1253 220.298 35.2779C220.298 36.4305 220.605 37.3526 221.22 38.0441C221.912 38.8125 222.757 39.2735 223.909 39.2735C225.139 39.2735 226.061 38.8893 226.676 38.121C227.29 37.3526 227.598 36.4305 227.598 35.2779Z" fill="#021D49"/>
<path d="M239.277 39.7346H238.509V31.3592L235.205 39.7346H233.975L231.056 31.3592L231.132 32.5118V39.6578H230.364V30.8213H231.593L234.667 39.4273L238.048 30.8213H239.277V39.7346Z" fill="#021D49"/>
<path d="M250.88 39.7346H250.112V31.3592L246.808 39.7346H245.578L242.658 31.3592L242.735 32.5118V39.6578H241.967V30.8213H243.196L246.27 39.4273L249.651 30.8213H250.88V39.7346Z" fill="#021D49"/>
<path d="M258.718 39.7346H253.646V30.8213H258.41V31.436H254.415V34.9706H258.18V35.6622H254.415V39.1199H258.718V39.7346Z" fill="#021D49"/>
<path d="M267.477 39.1968L267.401 39.8883C267.17 39.8883 266.863 39.8115 266.632 39.7346C266.171 39.5041 265.787 39.1968 265.48 38.7357L263.635 36.0464C263.405 36.1232 263.098 36.1232 262.713 36.1232H261.33V39.8115H260.562V30.8213H263.328C264.173 30.8213 264.865 31.0518 265.326 31.436C265.864 31.897 266.094 32.5118 266.094 33.357C266.094 34.5864 265.48 35.4316 264.327 35.8158L265.864 38.0442C266.248 38.582 266.786 39.0431 267.477 39.1968ZM265.249 33.4338C265.249 32.7423 265.019 32.2044 264.634 31.897C264.25 31.5897 263.712 31.436 263.021 31.436H261.33V35.3548H262.79C264.404 35.3548 265.249 34.7401 265.249 33.4338Z" fill="#021D49"/>
<path d="M275.238 39.5041C274.7 39.7346 273.855 39.8883 272.702 39.8883C271.319 39.8883 270.167 39.4272 269.322 38.582C268.553 37.7368 268.169 36.661 268.169 35.3547C268.169 33.9716 268.553 32.819 269.398 31.9738C270.167 31.1286 271.319 30.7444 272.702 30.7444C273.548 30.7444 274.393 30.8981 275.238 31.1286L275.008 31.7433C274.239 31.5128 273.548 31.3591 272.702 31.3591C271.627 31.3591 270.781 31.6665 270.09 32.2043C269.322 32.8959 268.937 33.818 268.937 35.1242C268.937 36.5073 269.322 37.5062 270.167 38.1978C270.858 38.8125 271.78 39.1199 272.933 39.1199C273.701 39.1199 274.393 39.043 275.008 38.8125L275.238 39.5041Z" fill="#021D49"/>
<path d="M281.846 39.7346H276.775V30.8213H281.539V31.436H277.543V34.9706H281.308V35.6622H277.543V39.1199H281.846V39.7346Z" fill="#021D49"/>
<path d="M87.2125 53.8728H86.3673L85.061 50.3382H81.4496L80.0665 53.8728H79.2981L82.9095 44.9595H83.9085L87.2125 53.8728ZM84.9074 49.7235L83.3706 45.5742L81.6801 49.7235H84.9074Z" fill="#021D49"/>
<path d="M95.3576 53.8728H93.9744L89.2873 45.4205L89.3641 46.2657V53.8728H88.5957V44.9595H89.8251L94.666 53.4886V52.336V44.9595H95.4344V53.8728H95.3576Z" fill="#021D49"/>
<path d="M105.116 49.4162C105.116 50.9529 104.655 52.1055 103.81 52.8739C102.965 53.5655 101.812 53.9497 100.352 53.9497H98.1237V44.9595H100.275C101.735 44.9595 102.888 45.3437 103.81 46.1121C104.655 46.8805 105.116 47.9562 105.116 49.4162ZM104.424 49.493C104.424 48.1867 104.04 47.1878 103.272 46.4963C102.503 45.8815 101.505 45.5742 100.275 45.5742H98.892V53.1813H100.583C101.812 53.1813 102.734 52.8739 103.502 52.2592C104.04 51.6445 104.424 50.7224 104.424 49.493Z" fill="#021D49"/>
<path d="M111.417 53.8728H110.649V44.9595H111.417V53.8728Z" fill="#021D49"/>
<path d="M120.945 53.8728H119.562L114.875 45.4205L114.951 46.2657V53.8728H114.183V44.9595H115.413L120.253 53.4886V52.336V44.9595H121.022V53.8728H120.945Z" fill="#021D49"/>
<path d="M130.78 49.4162C130.78 50.9529 130.319 52.1055 129.474 52.8739C128.629 53.5655 127.476 53.9497 126.016 53.9497H123.711V44.9595H125.863C127.323 44.9595 128.475 45.3437 129.397 46.1121C130.319 46.8805 130.78 47.9562 130.78 49.4162ZM130.012 49.493C130.012 48.1867 129.628 47.1878 128.859 46.4963C128.091 45.8815 127.092 45.5742 125.863 45.5742H124.48V53.1813H126.17C127.399 53.1813 128.322 52.8739 129.09 52.2592C129.705 51.6445 130.012 50.7224 130.012 49.493Z" fill="#021D49"/>
<path d="M139.463 50.5687C139.463 51.7981 139.079 52.7202 138.311 53.3349C137.696 53.7959 137.004 54.0264 136.082 54.0264C133.777 54.0264 132.625 52.9507 132.625 50.876V44.8826H133.393V50.7992C133.393 52.4897 134.315 53.3349 136.082 53.3349C137.85 53.3349 138.772 52.4128 138.772 50.4918V44.8826H139.463V50.5687Z" fill="#021D49"/>
<path d="M146.686 51.5676C146.686 52.336 146.379 52.9507 145.841 53.3349C145.303 53.7191 144.611 53.9496 143.689 53.9496C142.767 53.9496 141.999 53.7959 141.307 53.4886L141.615 52.8738C142.229 53.1812 142.921 53.3349 143.689 53.3349C144.304 53.3349 144.765 53.258 145.226 53.0275C145.764 52.7202 145.995 52.336 145.995 51.7213C145.995 51.0297 145.61 50.4918 144.842 50.0308C144.15 49.6466 143.459 49.3392 142.69 48.955C141.922 48.4172 141.538 47.8025 141.538 46.9572C141.538 46.2657 141.768 45.8046 142.229 45.4204C142.69 45.1131 143.228 44.8826 143.997 44.8826C144.765 44.8826 145.457 45.0362 145.995 45.2668L145.764 45.8815C145.226 45.651 144.611 45.5741 143.997 45.5741C142.767 45.5741 142.153 46.0352 142.153 46.9572C142.153 47.5719 142.537 48.1098 143.305 48.494C143.997 48.8782 144.688 49.2624 145.457 49.6466C146.302 50.1076 146.686 50.7992 146.686 51.5676Z" fill="#021D49"/>
<path d="M154.14 45.651H150.989V53.8728H150.221V45.651H147.07V44.9595H154.063V45.651H154.14Z" fill="#021D49"/>
<path d="M162.284 53.335L162.131 53.9497C161.9 53.9497 161.593 53.8728 161.362 53.796C160.901 53.5655 160.517 53.2581 160.21 52.7971L158.366 50.1077C158.135 50.1845 157.828 50.1845 157.444 50.1845H156.061V53.8728H155.292V44.9595H158.058C158.904 44.9595 159.595 45.19 160.056 45.5742C160.594 46.0352 160.825 46.6499 160.825 47.4952C160.825 48.7246 160.21 49.5698 159.057 49.954L160.594 52.1824C161.055 52.7202 161.593 53.1813 162.284 53.335ZM160.056 47.572C160.056 46.8805 159.826 46.3426 159.441 46.0352C159.057 45.7279 158.519 45.5742 157.828 45.5742H156.137V49.493H157.597C159.211 49.493 160.056 48.8783 160.056 47.572Z" fill="#021D49"/>
<path d="M168.893 44.9595L165.896 50.4151V53.8728H165.127V50.3382L162.284 44.9595H163.13L165.512 49.6467L168.047 44.9595H168.893Z" fill="#021D49"/>
<path d="M82.9095 7.69165H80.6044V25.3647H82.9095V7.69165Z" fill="#021D49"/>
<path d="M99.891 22.9837C98.9689 23.3679 97.6626 23.5216 96.049 23.5216C93.9743 23.5216 92.2839 22.9837 91.0544 21.8311C89.6713 20.6017 88.9798 18.7575 88.9798 16.4523C88.9798 14.1472 89.6713 12.3799 90.9776 11.2273C92.1302 10.2284 93.667 9.6905 95.588 9.6905C97.1247 9.6905 98.5847 9.92101 99.891 10.382L100.045 10.4589L100.659 8.38423L100.506 8.30739C99.1994 7.76951 97.5089 7.46216 95.4343 7.46216C92.5912 7.46216 90.3629 8.30739 88.8261 9.92101C87.2125 11.5346 86.4441 13.763 86.4441 16.606C86.4441 19.2186 87.2125 21.3701 88.8261 22.9837C90.5166 24.6741 92.7449 25.5962 95.588 25.5962C97.5858 25.5962 99.2762 25.3657 100.583 24.9047L100.736 24.8278L100.045 22.83L99.891 22.9837Z" fill="#021D49"/>
<path d="M115.182 22.9837C114.26 23.3679 112.954 23.5216 111.34 23.5216C109.265 23.5216 107.575 22.9837 106.346 21.8311C104.962 20.6017 104.271 18.7575 104.271 16.4523C104.271 14.1472 104.962 12.3799 106.269 11.2273C107.421 10.2284 108.958 9.6905 110.879 9.6905C112.416 9.6905 113.876 9.92101 115.182 10.382L115.336 10.4589L116.027 8.38423L115.874 8.30739C114.567 7.76951 112.877 7.46216 110.802 7.46216C107.959 7.46216 105.731 8.30739 104.194 9.92101C102.58 11.5346 101.812 13.763 101.812 16.606C101.812 19.2186 102.58 21.3701 104.194 22.9837C105.884 24.6741 108.113 25.5962 110.956 25.5962C112.954 25.5962 114.644 25.3657 115.95 24.9047L116.104 24.8278L115.413 22.83L115.182 22.9837Z" fill="#021D49"/>
<path d="M120.791 7.69263H118.486V25.3657H120.791V7.69263Z" fill="#021D49"/>
<path d="M141.615 23.4447L136.236 7.84631L136.159 7.69263H132.625V25.3657H135.007V11.4577V11.3809L139.847 25.3657H143.151L148.761 10.843L148.684 25.3657H151.066V7.69263H147.762L141.615 23.4447Z" fill="#021D49"/>
<path d="M158.366 17.4512H165.512V15.4534H158.366V9.69045H166.05V7.69263H155.984V25.3657H166.587V23.3678H158.366V17.4512Z" fill="#021D49"/>
<path d="M172.197 7.69263H169.815V25.3657H179.727V23.291H172.197V7.69263Z" fill="#021D49"/>
<path d="M191.714 16.5291C191.253 16.2218 190.792 15.9913 190.331 15.9144C191.637 15.2229 192.329 13.9166 192.329 12.1493C192.329 9.22941 190.408 7.69263 186.566 7.69263H181.648V25.3657H187.257C191.407 25.3657 193.558 23.6752 193.558 20.2943C193.635 18.527 193.02 17.2975 191.714 16.5291ZM184.107 15.2997V9.61361H186.105C187.488 9.61361 188.487 9.84413 189.101 10.2283C189.716 10.6125 190.023 11.3809 190.023 12.3798C190.023 14.3008 188.794 15.2229 186.335 15.2229H184.107V15.2997ZM191.253 20.2943C191.253 21.4469 190.869 22.2921 190.023 22.7531C189.332 23.1373 188.333 23.3678 186.95 23.3678H184.107V17.2207H186.028C187.872 17.2207 189.178 17.3744 189.947 17.7586C190.792 18.2964 191.253 19.0648 191.253 20.2943Z" fill="#021D49"/>
<path d="M204.93 7.38525C202.241 7.38525 200.013 8.23049 198.322 9.84411C196.632 11.4577 195.786 13.6861 195.786 16.4523C195.786 19.1417 196.555 21.37 198.015 23.0605C199.552 24.7509 201.703 25.673 204.392 25.673C207.159 25.673 209.387 24.8278 211.001 23.1373C212.614 21.4468 213.459 19.2185 213.459 16.5291C213.459 13.8397 212.768 11.6883 211.308 9.99779C209.771 8.30733 207.62 7.38525 204.93 7.38525ZM211.077 16.5291C211.077 18.6038 210.54 20.2942 209.464 21.6005C208.311 22.9836 206.621 23.5983 204.469 23.5983C202.471 23.5983 200.858 22.9068 199.782 21.4468C198.706 20.1406 198.168 18.4501 198.168 16.4523C198.168 14.3776 198.706 12.764 199.782 11.4577C200.935 10.1515 202.548 9.45991 204.623 9.45991C206.621 9.45991 208.234 10.1515 209.31 11.4577C210.463 12.764 211.077 14.4545 211.077 16.5291Z" fill="#021D49"/>
<path d="M228.52 18.527C228.52 21.9079 226.983 23.5983 223.756 23.5983C220.529 23.5983 218.992 22.1384 218.992 19.1417V7.69263H216.61V19.2954C216.61 23.5215 218.992 25.673 223.756 25.673C225.677 25.673 227.214 25.212 228.443 24.2899C229.98 23.0605 230.825 21.2163 230.825 18.6038V7.69263H228.597V18.527H228.52Z" fill="#021D49"/>
<path d="M248.114 22.8299C247.422 22.3689 246.808 21.7541 246.27 21.1394L243.734 18.0659C245.962 17.1438 247.038 15.4533 247.038 13.0713C247.038 9.45986 245.117 7.61572 241.275 7.61572H235.435V25.2887H237.817V18.6806H239.969C240.507 18.6806 240.968 18.6806 241.275 18.6037L244.733 22.9067C246.116 24.5972 247.576 25.5193 249.036 25.5961H249.19L249.651 23.5983L249.497 23.5214C249.19 23.4446 248.729 23.2141 248.114 22.8299ZM244.579 13.225C244.579 15.5302 243.119 16.6828 240.123 16.6828H237.817V9.61354H240.737C242.044 9.61354 243.043 9.9209 243.657 10.4588C244.272 11.0735 244.579 11.9956 244.579 13.225Z" fill="#021D49"/>
<path d="M263.866 21.5237L264.02 23.1373L255.49 7.69263H252.186V25.3657H254.492V11.4577L254.415 10.3052L262.713 25.3657H266.171V7.69263H263.866V21.5237Z" fill="#021D49"/>
<path d="M273.471 23.3678V17.4512H280.617V15.4534H273.471V9.69045H281.155V7.69263H271.166V25.3657H281.769V23.3678H273.471Z" fill="#021D49"/>
</svg>
