<svg width="257" height="54" viewBox="0 0 257 54" fill="none" xmlns="http://www.w3.org/2000/svg">
<path d="M27.7345 22.433C28.4331 22.433 29.2016 22.6426 29.8303 22.9919L31.1576 20.6865C30.1097 20.0578 28.9221 19.7783 27.7345 19.7783C23.962 19.7783 20.8882 22.8522 20.8882 26.5548C20.8882 30.3272 23.962 33.4011 27.7345 33.4011C28.9221 33.4011 30.1097 33.1216 31.1576 32.4929L29.8303 30.1875C29.2016 30.5368 28.5029 30.7464 27.8043 30.7464C25.499 30.7464 23.6826 28.8602 23.6826 26.6246C23.6127 24.3192 25.4291 22.433 27.7345 22.433Z" fill="#00AEEF"/>
<path d="M44.1517 22.433C44.8503 22.433 45.6187 22.6426 46.2475 22.9919L47.5748 20.6865C46.5269 20.0578 45.3393 19.7783 44.1517 19.7783C40.3792 19.7783 37.3054 22.8522 37.3054 26.5548C37.3054 30.3272 40.3792 33.4011 44.1517 33.4011C45.3393 33.4011 46.5269 33.1216 47.5748 32.4929L46.2475 30.1875C45.6187 30.5368 44.9201 30.7464 44.2215 30.7464C41.9161 30.7464 40.0998 28.8602 40.0998 26.6246C40.0299 24.3192 41.9161 22.433 44.1517 22.433Z" fill="#00AEEF"/>
<path d="M46.6667 14.6084C45.479 14.6084 44.2914 14.8878 43.2435 15.5166L44.5708 17.822C45.1996 17.4727 45.8982 17.2631 46.5968 17.2631C48.9022 17.2631 50.7186 19.1493 50.7186 21.3848C50.7186 23.6902 48.8323 25.5066 46.5968 25.5066C45.8982 25.5066 45.1297 25.297 44.501 24.9477L43.1736 27.2531C44.2215 27.8818 45.4092 28.1613 46.5968 28.1613C50.3692 28.1613 53.4431 25.0874 53.4431 21.315C53.513 17.6822 50.4391 14.6084 46.6667 14.6084Z" fill="#00AEEF"/>
<path d="M33.4631 38.0819C34.4411 37.523 35.5589 37.3833 36.6068 37.6627C37.6547 37.9422 38.5629 38.6408 39.1217 39.6188C39.471 40.2476 39.6806 40.9462 39.6806 41.7146H42.3353C42.3353 40.527 42.0559 39.3394 41.4271 38.2915C40.519 36.6847 39.0519 35.5669 37.3054 35.1478C35.5589 34.6588 33.6726 34.9382 32.1357 35.8464C30.5289 36.7546 29.4112 38.2216 28.992 39.9681C28.503 41.7146 28.7824 43.6009 29.6906 45.1378C30.2495 46.1857 31.1577 47.024 32.1357 47.5829L33.4631 45.2775C32.8343 44.9282 32.3453 44.3693 31.996 43.7406C31.4371 42.7625 31.2974 41.6448 31.5768 40.5969C31.7864 39.549 32.485 38.6408 33.4631 38.0819Z" fill="#00AEEF"/>
<path d="M44.6407 35.3574L43.3134 37.7327C43.9421 38.082 44.4312 38.6409 44.7805 39.1997C45.8982 41.1558 45.2695 43.7407 43.2435 44.8584C42.2655 45.4173 41.1477 45.557 40.0998 45.2776C39.0519 44.9981 38.1437 44.2995 37.5848 43.3215C37.2355 42.6927 37.026 41.9941 37.026 41.2257H34.3713C34.3713 42.4133 34.6507 43.6009 35.2795 44.6488C36.5369 46.8145 38.8423 48.072 41.2176 48.072C42.4052 48.072 43.523 47.7925 44.6407 47.1638C47.9242 45.2776 49.0419 41.086 47.1557 37.8724C46.527 36.8245 45.6886 35.9862 44.6407 35.3574Z" fill="#00AEEF"/>
<path d="M20.1197 38.1517C21.0978 38.7105 21.7265 39.6187 22.0758 40.6666C22.3553 41.7145 22.2156 42.8323 21.6567 43.8103C21.3074 44.4391 20.7485 44.998 20.1197 45.3473L21.4471 47.6527C22.495 47.0239 23.3333 46.1856 23.9621 45.1377C24.8702 43.5309 25.0798 41.7145 24.6607 39.968C24.1716 38.2215 23.0539 36.7545 21.4471 35.8463C18.1637 33.96 14.0419 35.0778 12.1557 38.3612C11.5968 39.4091 11.2475 40.5269 11.2475 41.7145H13.9022C13.9022 41.0159 14.1118 40.2475 14.4611 39.6187C15.6487 37.6626 18.1637 37.0339 20.1197 38.1517Z" fill="#00AEEF"/>
<path d="M24.8702 48.5607C24.3113 49.5388 23.4031 50.2374 22.3552 50.5168C21.3073 50.7963 20.1896 50.6566 19.2115 50.0977C18.2335 49.5388 17.6047 48.6306 17.2554 47.5827C16.976 46.5348 17.1157 45.417 17.6746 44.439C18.0239 43.8103 18.5828 43.2514 19.2115 42.9021L17.8842 40.5967C16.8363 41.1556 15.998 42.0637 15.3692 43.1116C13.483 46.3951 14.6008 50.5867 17.8842 52.4031C18.9321 53.0318 20.1197 53.3112 21.3073 53.3112C21.8662 53.3112 22.495 53.2414 23.0538 53.1017C24.8004 52.6126 26.2674 51.4949 27.1756 49.8881C27.7345 48.8402 28.0838 47.6526 28.0838 46.5348H25.4291C25.4291 47.2334 25.2195 47.932 24.8702 48.5607Z" fill="#00AEEF"/>
<path d="M9.29144 30.8162C8.59284 30.8162 7.82437 30.6067 7.19563 30.2574L5.86829 32.5627C6.91619 33.1915 8.10381 33.4709 9.29144 33.4709C11.1078 33.4709 12.8543 32.7723 14.1118 31.445C15.4391 30.1875 16.1377 28.441 16.1377 26.6246C16.1377 22.8522 13.0639 19.7783 9.29144 19.7783C8.10381 19.7783 6.91619 20.0578 5.86829 20.6865L7.19563 23.0618C7.82437 22.7125 8.52298 22.5029 9.22158 22.5029C11.527 22.5029 13.3433 24.3891 13.3433 26.6246C13.3433 27.7424 12.9242 28.7903 12.1557 29.5588C11.4571 30.3971 10.4092 30.8162 9.29144 30.8162Z" fill="#00AEEF"/>
<path d="M6.8463 35.9163C4.54092 35.9163 2.72455 34.03 2.72455 31.7945C2.72455 29.4891 4.61078 27.6728 6.8463 27.6728C7.61477 27.6728 8.31337 27.8823 8.94211 28.2316L10.2695 25.9262C9.22155 25.2975 8.03393 25.0181 6.8463 25.0181C3.07385 25.0181 0 28.0919 0 31.7945C0 35.567 3.07385 38.6408 6.8463 38.6408C8.03393 38.6408 9.22155 38.3614 10.2695 37.7326L8.94211 35.4272C8.24351 35.7765 7.54491 35.9163 6.8463 35.9163Z" fill="#00AEEF"/>
<path d="M20.0499 15.0976C19.0718 15.6565 17.9541 15.7962 16.9062 15.5168C15.8582 15.2374 14.9501 14.5388 14.3912 13.5607C14.0419 12.932 13.8323 12.2334 13.8323 11.4649H11.1776C11.1776 12.6525 11.4571 13.8402 12.0858 14.8881C12.994 16.4948 14.461 17.6126 16.2076 18.0318C16.7664 18.1715 17.3952 18.3112 18.0239 18.3112C19.2115 18.3112 20.3992 17.9619 21.4471 17.403C24.7305 15.5168 25.8483 11.3252 23.962 8.11161C23.4032 7.06371 22.495 6.22539 21.5169 5.6665L20.1896 7.97189C20.8183 8.32119 21.3073 8.88008 21.7265 9.50882C22.7046 11.4649 22.0758 13.9799 20.0499 15.0976Z" fill="#00AEEF"/>
<path d="M8.87223 17.8917L10.1996 15.5863C9.57083 15.237 9.08181 14.6781 8.66264 14.0494C7.54488 12.0933 8.17362 9.50847 10.1996 8.3907C12.1557 7.27294 14.7405 7.97154 15.8583 9.92763C16.2076 10.5564 16.4171 11.255 16.4171 12.0234H19.0718C19.0718 10.8358 18.7924 9.64819 18.1636 8.60028C16.2774 5.38671 12.0858 4.26895 8.87223 6.08532C5.58879 7.97154 4.47103 12.1632 6.35726 15.3767C6.986 16.4246 7.82432 17.263 8.87223 17.8917Z" fill="#00AEEF"/>
<path d="M33.3932 15.0977C32.4152 14.5388 31.7166 13.6306 31.4371 12.5827C31.1577 11.5348 31.2974 10.4171 31.8563 9.43903C32.2056 8.81029 32.7645 8.2514 33.3932 7.9021L32.0659 5.52686C31.018 6.1556 30.1796 6.99392 29.5509 8.04182C28.6427 9.57875 28.3633 11.465 28.8523 13.2115C29.3413 14.958 30.4591 16.4251 32.0659 17.3332C33.1138 17.962 34.3014 18.2414 35.489 18.2414C37.8643 18.2414 40.1697 16.9839 41.4271 14.8183C42.0559 13.7704 42.3353 12.6526 42.3353 11.465H39.6806C39.6806 12.1636 39.4711 12.932 39.1218 13.5608C37.8643 15.5169 35.3493 16.2155 33.3932 15.0977Z" fill="#00AEEF"/>
<path d="M28.6427 4.68855C29.7605 2.73246 32.3453 2.03386 34.3014 3.22148C35.2794 3.78036 35.978 4.61869 36.2575 5.73645C36.5369 6.78436 36.3972 7.90212 35.8383 8.88016C35.489 9.5089 34.9301 10.0678 34.3014 10.4171L35.6287 12.7225C36.6766 12.1636 37.515 11.2554 38.1437 10.2075C39.0519 8.60072 39.3313 6.78436 38.8423 5.03785C38.3533 3.29134 37.2355 1.82428 35.6287 0.916095C32.3453 -0.970132 28.2235 0.147632 26.3373 3.43106C25.7784 4.47897 25.4291 5.66659 25.4291 6.78436H28.0838C28.0838 6.01589 28.2934 5.31729 28.6427 4.68855Z" fill="#00AEEF"/>
<path d="M27.7345 22.433C28.4331 22.433 29.2016 22.6426 29.8303 22.9919L31.1576 20.6865C30.1097 20.0578 28.9221 19.7783 27.7345 19.7783C23.962 19.7783 20.8882 22.8522 20.8882 26.5548C20.8882 30.3272 23.962 33.4011 27.7345 33.4011C28.9221 33.4011 30.1097 33.1216 31.1576 32.4929L29.8303 30.1875C29.2016 30.5368 28.5029 30.7464 27.8043 30.7464C25.499 30.7464 23.6826 28.8602 23.6826 26.6246C23.6127 24.3192 25.4291 22.433 27.7345 22.433Z" fill="#00AEEF"/>
<path d="M44.1517 22.433C44.8503 22.433 45.6187 22.6426 46.2475 22.9919L47.5748 20.6865C46.5269 20.0578 45.3393 19.7783 44.1517 19.7783C40.3792 19.7783 37.3054 22.8522 37.3054 26.5548C37.3054 30.3272 40.3792 33.4011 44.1517 33.4011C45.3393 33.4011 46.5269 33.1216 47.5748 32.4929L46.2475 30.1875C45.6187 30.5368 44.9201 30.7464 44.2215 30.7464C41.9161 30.7464 40.0998 28.8602 40.0998 26.6246C40.0299 24.3192 41.9161 22.433 44.1517 22.433Z" fill="#00AEEF"/>
<path d="M46.6667 14.6084C45.479 14.6084 44.2914 14.8878 43.2435 15.5166L44.5708 17.822C45.1996 17.4727 45.8982 17.2631 46.5968 17.2631C48.9022 17.2631 50.7186 19.1493 50.7186 21.3848C50.7186 23.6902 48.8323 25.5066 46.5968 25.5066C45.8982 25.5066 45.1297 25.297 44.501 24.9477L43.1736 27.2531C44.2215 27.8818 45.4092 28.1613 46.5968 28.1613C50.3692 28.1613 53.4431 25.0874 53.4431 21.315C53.513 17.6822 50.4391 14.6084 46.6667 14.6084Z" fill="#00AEEF"/>
<path d="M33.4631 38.0819C34.4411 37.523 35.5589 37.3833 36.6068 37.6627C37.6547 37.9422 38.5629 38.6408 39.1217 39.6188C39.471 40.2476 39.6806 40.9462 39.6806 41.7146H42.3353C42.3353 40.527 42.0559 39.3394 41.4271 38.2915C40.519 36.6847 39.0519 35.5669 37.3054 35.1478C35.5589 34.6588 33.6726 34.9382 32.1357 35.8464C30.5289 36.7546 29.4112 38.2216 28.992 39.9681C28.503 41.7146 28.7824 43.6009 29.6906 45.1378C30.2495 46.1857 31.1577 47.024 32.1357 47.5829L33.4631 45.2775C32.8343 44.9282 32.3453 44.3693 31.996 43.7406C31.4371 42.7625 31.2974 41.6448 31.5768 40.5969C31.7864 39.549 32.485 38.6408 33.4631 38.0819Z" fill="#00AEEF"/>
<path d="M44.6407 35.3574L43.3134 37.7327C43.9421 38.082 44.4312 38.6409 44.7805 39.1997C45.8982 41.1558 45.2695 43.7407 43.2435 44.8584C42.2655 45.4173 41.1477 45.557 40.0998 45.2776C39.0519 44.9981 38.1437 44.2995 37.5848 43.3215C37.2355 42.6927 37.026 41.9941 37.026 41.2257H34.3713C34.3713 42.4133 34.6507 43.6009 35.2795 44.6488C36.5369 46.8145 38.8423 48.072 41.2176 48.072C42.4052 48.072 43.523 47.7925 44.6407 47.1638C47.9242 45.2776 49.0419 41.086 47.1557 37.8724C46.527 36.8245 45.6886 35.9862 44.6407 35.3574Z" fill="#00AEEF"/>
<path d="M20.1197 38.1517C21.0978 38.7105 21.7265 39.6187 22.0758 40.6666C22.3553 41.7145 22.2156 42.8323 21.6567 43.8103C21.3074 44.4391 20.7485 44.998 20.1197 45.3473L21.4471 47.6527C22.495 47.0239 23.3333 46.1856 23.9621 45.1377C24.8702 43.5309 25.0798 41.7145 24.6607 39.968C24.1716 38.2215 23.0539 36.7545 21.4471 35.8463C18.1637 33.96 14.0419 35.0778 12.1557 38.3612C11.5968 39.4091 11.2475 40.5269 11.2475 41.7145H13.9022C13.9022 41.0159 14.1118 40.2475 14.4611 39.6187C15.6487 37.6626 18.1637 37.0339 20.1197 38.1517Z" fill="#00AEEF"/>
<path d="M24.8702 48.5607C24.3113 49.5388 23.4031 50.2374 22.3552 50.5168C21.3073 50.7963 20.1896 50.6566 19.2115 50.0977C18.2335 49.5388 17.6047 48.6306 17.2554 47.5827C16.976 46.5348 17.1157 45.417 17.6746 44.439C18.0239 43.8103 18.5828 43.2514 19.2115 42.9021L17.8842 40.5967C16.8363 41.1556 15.998 42.0637 15.3692 43.1116C13.483 46.3951 14.6008 50.5867 17.8842 52.4031C18.9321 53.0318 20.1197 53.3112 21.3073 53.3112C21.8662 53.3112 22.495 53.2414 23.0538 53.1017C24.8004 52.6126 26.2674 51.4949 27.1756 49.8881C27.7345 48.8402 28.0838 47.6526 28.0838 46.5348H25.4291C25.4291 47.2334 25.2195 47.932 24.8702 48.5607Z" fill="#00AEEF"/>
<path d="M9.29144 30.8162C8.59284 30.8162 7.82437 30.6067 7.19563 30.2574L5.86829 32.5627C6.91619 33.1915 8.10381 33.4709 9.29144 33.4709C11.1078 33.4709 12.8543 32.7723 14.1118 31.445C15.4391 30.1875 16.1377 28.441 16.1377 26.6246C16.1377 22.8522 13.0639 19.7783 9.29144 19.7783C8.10381 19.7783 6.91619 20.0578 5.86829 20.6865L7.19563 23.0618C7.82437 22.7125 8.52298 22.5029 9.22158 22.5029C11.527 22.5029 13.3433 24.3891 13.3433 26.6246C13.3433 27.7424 12.9242 28.7903 12.1557 29.5588C11.4571 30.3971 10.4092 30.8162 9.29144 30.8162Z" fill="#00AEEF"/>
<path d="M6.8463 35.9163C4.54092 35.9163 2.72455 34.03 2.72455 31.7945C2.72455 29.4891 4.61078 27.6728 6.8463 27.6728C7.61477 27.6728 8.31337 27.8823 8.94211 28.2316L10.2695 25.9262C9.22155 25.2975 8.03393 25.0181 6.8463 25.0181C3.07385 25.0181 0 28.0919 0 31.7945C0 35.567 3.07385 38.6408 6.8463 38.6408C8.03393 38.6408 9.22155 38.3614 10.2695 37.7326L8.94211 35.4272C8.24351 35.7765 7.54491 35.9163 6.8463 35.9163Z" fill="#00AEEF"/>
<path d="M20.0499 15.0976C19.0718 15.6565 17.9541 15.7962 16.9062 15.5168C15.8582 15.2374 14.9501 14.5388 14.3912 13.5607C14.0419 12.932 13.8323 12.2334 13.8323 11.4649H11.1776C11.1776 12.6525 11.4571 13.8402 12.0858 14.8881C12.994 16.4948 14.461 17.6126 16.2076 18.0318C16.7664 18.1715 17.3952 18.3112 18.0239 18.3112C19.2115 18.3112 20.3992 17.9619 21.4471 17.403C24.7305 15.5168 25.8483 11.3252 23.962 8.11161C23.4032 7.06371 22.495 6.22539 21.5169 5.6665L20.1896 7.97189C20.8183 8.32119 21.3073 8.88008 21.7265 9.50882C22.7046 11.4649 22.0758 13.9799 20.0499 15.0976Z" fill="#00AEEF"/>
<path d="M8.87223 17.8917L10.1996 15.5863C9.57083 15.237 9.08181 14.6781 8.66264 14.0494C7.54488 12.0933 8.17362 9.50847 10.1996 8.3907C12.1557 7.27294 14.7405 7.97154 15.8583 9.92763C16.2076 10.5564 16.4171 11.255 16.4171 12.0234H19.0718C19.0718 10.8358 18.7924 9.64819 18.1636 8.60028C16.2774 5.38671 12.0858 4.26895 8.87223 6.08532C5.58879 7.97154 4.47103 12.1632 6.35726 15.3767C6.986 16.4246 7.82432 17.263 8.87223 17.8917Z" fill="#00AEEF"/>
<path d="M33.3932 15.0977C32.4152 14.5388 31.7166 13.6306 31.4371 12.5827C31.1577 11.5348 31.2974 10.4171 31.8563 9.43903C32.2056 8.81029 32.7645 8.2514 33.3932 7.9021L32.0659 5.52686C31.018 6.1556 30.1796 6.99392 29.5509 8.04182C28.6427 9.57875 28.3633 11.465 28.8523 13.2115C29.3413 14.958 30.4591 16.4251 32.0659 17.3332C33.1138 17.962 34.3014 18.2414 35.489 18.2414C37.8643 18.2414 40.1697 16.9839 41.4271 14.8183C42.0559 13.7704 42.3353 12.6526 42.3353 11.465H39.6806C39.6806 12.1636 39.4711 12.932 39.1218 13.5608C37.8643 15.5169 35.3493 16.2155 33.3932 15.0977Z" fill="#00AEEF"/>
<path d="M28.6427 4.68855C29.7605 2.73246 32.3453 2.03386 34.3014 3.22148C35.2794 3.78036 35.978 4.61869 36.2575 5.73645C36.5369 6.78436 36.3972 7.90212 35.8383 8.88016C35.489 9.5089 34.9301 10.0678 34.3014 10.4171L35.6287 12.7225C36.6766 12.1636 37.515 11.2554 38.1437 10.2075C39.0519 8.60072 39.3313 6.78436 38.8423 5.03785C38.3533 3.29134 37.2355 1.82428 35.6287 0.916095C32.3453 -0.970132 28.2235 0.147632 26.3373 3.43106C25.7784 4.47897 25.4291 5.66659 25.4291 6.78436H28.0838C28.0838 6.01589 28.2934 5.31729 28.6427 4.68855Z" fill="#00AEEF"/>
<path d="M190.16 42.9019H157.046V47.2332H190.16V42.9019Z" fill="#006C3F"/>
<path d="M256.387 42.9023H223.273V47.2337H256.387V42.9023Z" fill="#ED1C24"/>
<path d="M223.273 42.9023H190.16V47.2337H223.273V42.9023Z" fill="#EFEFF0"/>
<path d="M73.982 36.1258H73.2834V28.022H73.982V36.1258Z" fill="white"/>
<path d="M81.457 28.5804H78.5928V36.0555H77.8942V28.5804H75.0299V27.9517H81.3872V28.5804H81.457Z" fill="white"/>
<path d="M88.513 36.1258H87.7445L86.5569 32.9122H83.2036L81.9461 36.1258H81.2475L84.5309 28.022H85.4391L88.513 36.1258ZM86.4172 32.3533L85.0199 28.5809L83.483 32.3533H86.4172Z" fill="white"/>
<path d="M93.9621 36.1258H89.7704V28.022H90.469V35.497H93.9621V36.1258Z" fill="white"/>
<path d="M95.7784 36.1258H95.0798V28.022H95.7784V36.1258Z" fill="white"/>
<path d="M104.231 36.1258H103.463L102.275 32.9122H98.9221L97.6646 36.1258H96.966L100.249 28.022H101.158L104.231 36.1258ZM102.136 32.3533L100.738 28.5809L99.2015 32.3533H102.136Z" fill="white"/>
<path d="M111.637 36.1258H110.379L106.118 28.4411L106.188 29.2096V36.1258H105.489V28.022H106.607L111.008 35.7765V34.7286V28.022H111.707V36.1258H111.637Z" fill="white"/>
<path d="M123.094 35.9157C122.605 36.1253 121.836 36.265 120.788 36.265C119.531 36.265 118.483 35.8459 117.715 35.0774C117.016 34.3089 116.667 33.3309 116.667 32.1433C116.667 30.8858 117.016 29.8379 117.784 29.0694C118.483 28.301 119.531 27.9517 120.788 27.9517C121.557 27.9517 122.325 28.0914 123.094 28.301L122.884 28.8598C122.186 28.6503 121.557 28.5105 120.788 28.5105C119.81 28.5105 119.042 28.79 118.413 29.279C117.715 29.9077 117.365 30.7461 117.365 31.9337C117.365 33.1912 117.715 34.0994 118.483 34.7281C119.112 35.287 119.95 35.5664 120.998 35.5664C121.697 35.5664 122.325 35.4966 122.884 35.287L123.094 35.9157Z" fill="white"/>
<path d="M130.499 36.1258H129.8V32.3533H125.12V36.1258H124.421V28.022H125.12V31.7944H129.8V28.022H130.499V36.1258Z" fill="white"/>
<path d="M138.952 36.1258H138.184L136.996 32.9122H133.643L132.385 36.1258H131.687L134.97 28.022H135.878L138.952 36.1258ZM136.856 32.3533L135.459 28.5809L133.922 32.3533H136.856Z" fill="white"/>
<path d="M148.243 36.1258H147.545V28.511L144.611 36.1258H143.493L140.838 28.511L140.908 29.5589V36.0559H140.209V28.022H141.327L144.122 35.8463L147.195 28.022H148.313V36.1258H148.243Z" fill="white"/>
<path d="M155.928 33.8902C155.928 35.4272 155.02 36.1258 153.204 36.1258H150.828V28.022H152.924C153.762 28.022 154.391 28.2316 154.88 28.5809C155.299 28.9302 155.439 29.3493 155.439 29.9781C155.439 30.4671 155.299 30.8862 155.09 31.1657C154.95 31.3753 154.74 31.5848 154.531 31.7246C154.461 31.7944 154.321 31.7944 154.251 31.7944C154.391 31.7944 154.531 31.8643 154.671 31.8643C155.02 32.004 155.299 32.1437 155.509 32.4232C155.788 32.8423 155.928 33.3313 155.928 33.8902ZM154.671 30.1178C154.671 29.5589 154.461 29.1397 154.112 28.8603C153.832 28.6507 153.273 28.511 152.575 28.511H151.457V31.5848H152.784C153.483 31.5848 153.902 31.4451 154.251 31.1657C154.531 31.026 154.671 30.6068 154.671 30.1178ZM155.23 33.8902C155.23 33.1916 155.02 32.7725 154.531 32.493C154.182 32.2834 153.483 32.2136 152.575 32.2136H151.457V35.5669H152.994C153.693 35.5669 154.182 35.497 154.531 35.2874C155.02 35.008 155.23 34.519 155.23 33.8902Z" fill="white"/>
<path d="M162.425 36.1258H157.884V28.022H162.215V28.5809H158.583V31.7944H162.006V32.4232H158.583V35.5669H162.495V36.1258H162.425Z" fill="white"/>
<path d="M170.459 35.6367L170.319 36.1956C170.11 36.1956 169.83 36.1258 169.621 36.0559C169.202 35.8463 168.852 35.5669 168.573 35.1477L166.896 32.7026C166.687 32.7725 166.407 32.7725 166.058 32.7725H164.87V36.1258H164.172V28.022H166.687C167.455 28.022 168.084 28.2316 168.503 28.5809C168.992 29 169.202 29.5589 169.202 30.3274C169.202 31.4451 168.643 32.2136 167.595 32.5629L168.992 34.5888C169.341 35.0779 169.83 35.497 170.459 35.6367ZM168.433 30.3972C168.433 29.7685 168.223 29.2795 167.874 29C167.525 28.7206 167.036 28.5809 166.407 28.5809H164.87V32.1437H166.198C167.665 32.1437 168.433 31.5848 168.433 30.3972Z" fill="white"/>
<path d="M182.265 32.0734C182.265 33.3309 181.916 34.3089 181.148 35.0774C180.379 35.8459 179.401 36.265 178.144 36.265C176.956 36.265 175.978 35.8459 175.279 35.0774C174.581 34.3089 174.231 33.3309 174.231 32.0734C174.231 30.8159 174.581 29.8379 175.349 29.0694C176.118 28.301 177.096 27.9517 178.353 27.9517C179.611 27.9517 180.519 28.3708 181.217 29.1393C181.916 29.8379 182.265 30.8159 182.265 32.0734ZM181.567 32.0734C181.567 31.0255 181.287 30.1872 180.728 29.5584C180.1 28.8598 179.331 28.5105 178.283 28.5105C177.235 28.5105 176.397 28.8598 175.768 29.5584C175.209 30.1872 174.93 31.0255 174.93 32.0734C174.93 33.1213 175.209 33.9596 175.768 34.5884C176.397 35.287 177.166 35.7061 178.213 35.7061C179.331 35.7061 180.17 35.3568 180.728 34.6582C181.287 33.9596 181.567 33.1213 181.567 32.0734Z" fill="white"/>
<path d="M188.623 28.5809H184.78V32.004H188.413V32.6327H184.78V36.1956H184.082V28.022H188.623V28.5809Z" fill="white"/>
<path d="M199.032 35.9157C198.543 36.1253 197.774 36.265 196.726 36.265C195.469 36.265 194.421 35.8459 193.653 35.0774C192.954 34.3089 192.605 33.3309 192.605 32.1433C192.605 30.8858 192.954 29.8379 193.722 29.0694C194.421 28.301 195.469 27.9517 196.726 27.9517C197.495 27.9517 198.263 28.0914 199.032 28.301L198.822 28.8598C198.124 28.6503 197.495 28.5105 196.726 28.5105C195.748 28.5105 194.98 28.79 194.351 29.279C193.653 29.9077 193.303 30.7461 193.303 31.9337C193.303 33.1912 193.653 34.0994 194.421 34.7281C195.05 35.287 195.888 35.5664 196.936 35.5664C197.635 35.5664 198.263 35.4966 198.822 35.287L199.032 35.9157Z" fill="white"/>
<path d="M207.625 32.0734C207.625 33.3309 207.275 34.3089 206.507 35.0774C205.738 35.8459 204.76 36.265 203.503 36.265C202.315 36.265 201.337 35.8459 200.639 35.0774C199.94 34.3089 199.591 33.3309 199.591 32.0734C199.591 30.8159 199.94 29.8379 200.709 29.0694C201.477 28.301 202.455 27.9517 203.713 27.9517C204.97 27.9517 205.878 28.3708 206.577 29.1393C207.275 29.8379 207.625 30.8159 207.625 32.0734ZM206.926 32.0734C206.926 31.0255 206.647 30.1872 206.088 29.5584C205.459 28.8598 204.691 28.5105 203.643 28.5105C202.595 28.5105 201.756 28.8598 201.128 29.5584C200.569 30.1872 200.289 31.0255 200.289 32.0734C200.289 33.1213 200.569 33.9596 201.128 34.5884C201.756 35.287 202.525 35.7061 203.573 35.7061C204.691 35.7061 205.529 35.3568 206.088 34.6582C206.647 33.9596 206.926 33.1213 206.926 32.0734Z" fill="white"/>
<path d="M217.545 36.1258H216.846V28.511L213.842 36.1258H212.724L210.07 28.511L210.14 29.5589V36.0559H209.441V28.022H210.559L213.353 35.8463L216.427 28.022H217.545V36.1258Z" fill="white"/>
<path d="M228.094 36.1258H227.395V28.511L224.391 36.1258H223.273L220.619 28.511L220.689 29.5589V36.0559H219.99V28.022H221.108L223.902 35.8463L226.976 28.022H228.094V36.1258Z" fill="white"/>
<path d="M235.219 36.1258H230.609V28.022H234.94V28.5809H231.307V31.7944H234.73V32.4232H231.307V35.5669H235.219V36.1258Z" fill="white"/>
<path d="M243.184 35.6367L243.114 36.2655C242.904 36.2655 242.625 36.1956 242.415 36.1258C241.996 35.9162 241.647 35.6367 241.367 35.2176L239.691 32.7725C239.481 32.8423 239.201 32.8423 238.852 32.8423H237.595V36.1956H236.896V28.022H239.411C240.18 28.022 240.808 28.2316 241.227 28.5809C241.716 29 241.926 29.5589 241.926 30.3274C241.926 31.4451 241.367 32.2136 240.319 32.5629L241.716 34.5888C242.066 35.0779 242.555 35.497 243.184 35.6367ZM241.158 30.3972C241.158 29.7685 240.948 29.2795 240.599 29C240.249 28.7206 239.76 28.5809 239.132 28.5809H237.595V32.1437H238.922C240.389 32.1437 241.158 31.5848 241.158 30.3972Z" fill="white"/>
<path d="M250.239 35.9157C249.75 36.1253 248.982 36.265 247.934 36.265C246.677 36.265 245.629 35.8459 244.86 35.0774C244.162 34.3089 243.812 33.3309 243.812 32.1433C243.812 30.8858 244.162 29.8379 244.93 29.0694C245.629 28.301 246.677 27.9517 247.934 27.9517C248.702 27.9517 249.471 28.0914 250.239 28.301L250.03 28.8598C249.331 28.6503 248.702 28.5105 247.934 28.5105C246.956 28.5105 246.188 28.79 245.559 29.279C244.86 29.9077 244.511 30.7461 244.511 31.9337C244.511 33.1912 244.86 34.0994 245.629 34.7281C246.257 35.287 247.096 35.5664 248.144 35.5664C248.842 35.5664 249.471 35.4966 250.03 35.287L250.239 35.9157Z" fill="white"/>
<path d="M256.247 36.1258H251.637V28.022H255.968V28.5809H252.335V31.7944H255.758V32.4232H252.335V35.5669H256.247V36.1258Z" fill="white"/>
<path d="M79.2914 48.9798H78.5229L77.3353 45.7662H74.0519L72.7944 48.9798H72.0958L75.3792 40.876H76.2874L79.2914 48.9798ZM77.1956 45.2073L75.7984 41.4349L74.2614 45.2073H77.1956Z" fill="white"/>
<path d="M86.6966 48.9798H85.4391L81.1776 41.2951L81.2475 42.0636V48.9798H80.5489V40.876H81.6667L86.0678 48.6305V47.5826V40.876H86.7664V48.9798H86.6966Z" fill="white"/>
<path d="M95.5688 44.9279C95.5688 46.3251 95.1497 47.373 94.3812 48.0716C93.6127 48.7003 92.5648 49.0496 91.2375 49.0496H89.2115V40.876H91.1676C92.495 40.876 93.5429 41.2253 94.3812 41.9239C95.1497 42.6225 95.5688 43.6005 95.5688 44.9279ZM94.9401 44.9977C94.9401 43.8101 94.5908 42.9019 93.8922 42.2732C93.1936 41.7143 92.2854 41.4349 91.1676 41.4349H89.9102V48.351H91.4471C92.5648 48.351 93.4032 48.0716 94.1018 47.5127C94.5908 46.9538 94.9401 46.1155 94.9401 44.9977Z" fill="white"/>
<path d="M101.297 48.9798H100.599V40.876H101.297V48.9798Z" fill="white"/>
<path d="M109.96 48.9798H108.703L104.441 41.2951L104.511 42.0636V48.9798H103.812V40.876H104.93L109.331 48.6305V47.5826V40.876H110.03V48.9798H109.96Z" fill="white"/>
<path d="M118.902 44.9279C118.902 46.3251 118.483 47.373 117.714 48.0716C116.946 48.7003 115.898 49.0496 114.571 49.0496H112.475V40.876H114.431C115.758 40.876 116.806 41.2253 117.645 41.9239C118.483 42.6225 118.902 43.6005 118.902 44.9279ZM118.204 44.9977C118.204 43.8101 117.854 42.9019 117.156 42.2732C116.457 41.7143 115.549 41.4349 114.431 41.4349H113.174V48.351H114.711C115.828 48.351 116.667 48.0716 117.365 47.5127C117.924 46.9538 118.204 46.1155 118.204 44.9977Z" fill="white"/>
<path d="M126.796 45.9753C126.796 47.0931 126.447 47.9314 125.748 48.4903C125.19 48.9095 124.561 49.119 123.723 49.119C121.627 49.119 120.579 48.141 120.579 46.2548V40.8057H121.277V46.1849C121.277 47.7218 122.116 48.4903 123.723 48.4903C125.329 48.4903 126.168 47.652 126.168 45.9055V40.8057H126.796V45.9753Z" fill="white"/>
<path d="M133.363 46.8835C133.363 47.5821 133.084 48.141 132.595 48.4903C132.106 48.8396 131.477 49.0492 130.639 49.0492C129.8 49.0492 129.102 48.9095 128.473 48.63L128.752 48.0711C129.311 48.3506 129.94 48.4903 130.639 48.4903C131.198 48.4903 131.617 48.4204 132.036 48.2108C132.525 47.9314 132.735 47.5821 132.735 47.0232C132.735 46.3945 132.385 45.9055 131.687 45.4863C131.058 45.137 130.429 44.8576 129.731 44.5083C129.032 44.0192 128.683 43.4604 128.683 42.6919C128.683 42.0631 128.892 41.644 129.311 41.2947C129.731 41.0152 130.22 40.8057 130.918 40.8057C131.617 40.8057 132.245 40.9454 132.735 41.155L132.525 41.7138C132.036 41.5043 131.477 41.4344 130.918 41.4344C129.8 41.4344 129.241 41.8536 129.241 42.6919C129.241 43.2508 129.591 43.7398 130.289 44.0891C130.918 44.4384 131.547 44.7877 132.245 45.137C133.014 45.5562 133.363 46.1849 133.363 46.8835Z" fill="white"/>
<path d="M140.14 41.5047H137.275V48.9798H136.577V41.5047H133.713V40.876H140.07V41.5047H140.14Z" fill="white"/>
<path d="M147.545 48.4907L147.405 49.0496C147.196 49.0496 146.916 48.9798 146.707 48.9099C146.287 48.7003 145.938 48.4209 145.659 48.0017L143.982 45.5566C143.772 45.6265 143.493 45.6265 143.144 45.6265H141.886V48.9798H141.188V40.876H143.703C144.471 40.876 145.1 41.0856 145.519 41.4349C146.008 41.854 146.217 42.4129 146.217 43.1814C146.217 44.2991 145.659 45.0676 144.611 45.4169L146.008 47.4428C146.427 47.9319 146.916 48.351 147.545 48.4907ZM145.519 43.2512C145.519 42.6225 145.309 42.1335 144.96 41.854C144.611 41.5746 144.122 41.4349 143.493 41.4349H141.956V44.9977H143.283C144.75 44.9977 145.519 44.4389 145.519 43.2512Z" fill="white"/>
<path d="M153.553 40.876L150.828 45.8361V48.9798H150.13V45.7662L147.545 40.876H148.313L150.479 45.1375L152.784 40.876H153.553Z" fill="white"/>
<path d="M75.3792 6.99512H73.2834V23.063H75.3792V6.99512Z" fill="white"/>
<path d="M90.8183 20.8969C89.98 21.2462 88.7924 21.3859 87.3253 21.3859C85.4391 21.3859 83.9022 20.8969 82.7844 19.849C81.5269 18.7313 80.8982 17.0546 80.8982 14.9588C80.8982 12.863 81.5269 11.2562 82.7145 10.2083C83.7624 9.30013 85.1596 8.8111 86.9061 8.8111C88.3033 8.8111 89.6307 9.02068 90.8183 9.43985L90.958 9.50971L91.5169 7.62348L91.3772 7.55362C90.1896 7.0646 88.6526 6.78516 86.7664 6.78516C84.1816 6.78516 82.1556 7.55362 80.7584 9.02068C79.2914 10.4877 78.5928 12.5137 78.5928 15.0985C78.5928 17.4738 79.2914 19.4299 80.7584 20.8969C82.2954 22.4339 84.3213 23.2722 86.9061 23.2722C88.7225 23.2722 90.2594 23.0626 91.4471 22.6434L91.5868 22.5736L90.958 20.7572L90.8183 20.8969Z" fill="white"/>
<path d="M104.72 20.8969C103.882 21.2462 102.695 21.3859 101.227 21.3859C99.3413 21.3859 97.8043 20.8969 96.6866 19.849C95.4291 18.7313 94.8003 17.0546 94.8003 14.9588C94.8003 12.863 95.4291 11.2562 96.6167 10.2083C97.6646 9.30013 99.0618 8.8111 100.808 8.8111C102.206 8.8111 103.533 9.02068 104.72 9.43985L104.86 9.50971L105.489 7.62348L105.349 7.55362C104.162 7.0646 102.625 6.78516 100.738 6.78516C98.1536 6.78516 96.1277 7.55362 94.7305 9.02068C93.2634 10.4877 92.5648 12.5137 92.5648 15.0985C92.5648 17.4738 93.2634 19.4299 94.7305 20.8969C96.2674 22.4339 98.2934 23.2722 100.878 23.2722C102.695 23.2722 104.231 23.0626 105.419 22.6434L105.559 22.5736L104.93 20.7572L104.72 20.8969Z" fill="white"/>
<path d="M109.82 6.99463H107.724V23.0625H109.82V6.99463Z" fill="white"/>
<path d="M128.752 21.316L123.862 7.13435L123.792 6.99463H120.579V23.0625H122.744V10.4178V10.3479L127.146 23.0625H130.15L135.249 9.8589L135.18 23.0625H137.345V6.99463H134.341L128.752 21.316Z" fill="white"/>
<path d="M143.982 15.8669H150.479V14.0505H143.982V8.81099H150.968V6.99463H141.816V23.0625H151.457V21.2461H143.982V15.8669Z" fill="white"/>
<path d="M156.557 6.99463H154.391V23.0625H163.403V21.1763H156.557V6.99463Z" fill="white"/>
<path d="M174.301 15.0286C173.882 14.7491 173.463 14.5395 173.044 14.4697C174.231 13.8409 174.86 12.6533 174.86 11.0465C174.86 8.39183 173.114 6.99463 169.621 6.99463H165.15V23.0625H170.249C174.022 23.0625 175.978 21.5256 175.978 18.4517C176.048 16.8449 175.489 15.7272 174.301 15.0286ZM167.385 13.9108V8.74114H169.201C170.459 8.74114 171.367 8.95072 171.926 9.30002C172.485 9.64932 172.764 10.3479 172.764 11.2561C172.764 13.0026 171.647 13.8409 169.411 13.8409H167.385V13.9108ZM173.882 18.4517C173.882 19.4996 173.533 20.2681 172.764 20.6872C172.136 21.0365 171.227 21.2461 169.97 21.2461H167.385V15.6573H169.132C170.808 15.6573 171.996 15.797 172.695 16.1463C173.463 16.6353 173.882 17.3339 173.882 18.4517Z" fill="white"/>
<path d="M186.317 6.71484C183.872 6.71484 181.846 7.48331 180.309 8.95037C178.772 10.4174 178.004 12.4434 178.004 14.9584C178.004 17.4035 178.703 19.4294 180.03 20.9663C181.427 22.5033 183.383 23.3416 185.828 23.3416C188.343 23.3416 190.369 22.5731 191.836 21.0362C193.303 19.4993 194.072 17.4733 194.072 15.0282C194.072 12.5831 193.443 10.627 192.116 9.09009C190.718 7.55317 188.762 6.71484 186.317 6.71484ZM191.906 15.0282C191.906 16.9144 191.417 18.4514 190.439 19.639C189.391 20.8965 187.854 21.4554 185.898 21.4554C184.082 21.4554 182.615 20.8266 181.637 19.4993C180.659 18.3116 180.17 16.7747 180.17 14.9584C180.17 13.0721 180.659 11.6051 181.637 10.4174C182.685 9.22981 184.152 8.60107 186.038 8.60107C187.854 8.60107 189.321 9.22981 190.299 10.4174C191.347 11.6051 191.906 13.142 191.906 15.0282Z" fill="white"/>
<path d="M207.764 16.8449C207.764 19.9188 206.367 21.4557 203.433 21.4557C200.499 21.4557 199.102 20.1284 199.102 17.4038V6.99463H196.936V17.5435C196.936 21.3858 199.102 23.3419 203.433 23.3419C205.18 23.3419 206.577 22.9228 207.695 22.0844C209.092 20.9667 209.86 19.29 209.86 16.9148V6.99463H207.834V16.8449H207.764Z" fill="white"/>
<path d="M225.579 20.7566C224.95 20.3375 224.391 19.7786 223.902 19.2197L221.597 16.4253C223.623 15.587 224.601 14.0501 224.601 11.8844C224.601 8.60096 222.854 6.92432 219.361 6.92432H214.052V22.9922H216.217V16.9842H218.174C218.663 16.9842 219.082 16.9842 219.361 16.9143L222.505 20.8265C223.762 22.3634 225.09 23.2018 226.417 23.2716H226.557L226.976 21.4552L226.836 21.3854C226.557 21.3155 226.138 21.1059 225.579 20.7566ZM222.365 12.0241C222.365 14.1199 221.038 15.1678 218.313 15.1678H216.217V8.74068H218.872C220.06 8.74068 220.968 9.02012 221.527 9.50915C222.086 10.068 222.365 10.9064 222.365 12.0241Z" fill="white"/>
<path d="M239.9 19.5695L240.04 21.0365L232.285 6.99463H229.281V23.0625H231.377V10.4178L231.307 9.36988L238.852 23.0625H241.996V6.99463H239.9V19.5695Z" fill="white"/>
<path d="M248.633 21.2461V15.8669H255.13V14.0505H248.633V8.81099H255.619V6.99463H246.537V23.0625H256.178V21.2461H248.633Z" fill="white"/>
</svg>
